<?xml version="1.0" encoding="utf-8"?>
<!-- Generator: Adobe Illustrator 27.5.0, SVG Export Plug-In . SVG Version: 6.00 Build 0)  -->
<svg version="1.1" xmlns="http://www.w3.org/2000/svg" xmlns:xlink="http://www.w3.org/1999/xlink" x="0px" y="0px"
	 viewBox="0 0 500 500" style="enable-background:new 0 0 500 500;" xml:space="preserve">
<g id="BACKGROUND">
	<rect style="fill:#F9FAEB;" width="500" height="500"/>
</g>
<g id="OBJECTS">
	<g>
		<g>
			<linearGradient id="SVGID_1_" gradientUnits="userSpaceOnUse" x1="166.4297" y1="276.1572" x2="182.4658" y2="301.3365">
				<stop  offset="0" style="stop-color:#FEECBB"/>
				<stop  offset="1" style="stop-color:#FEECBB;stop-opacity:0"/>
			</linearGradient>
			<polygon style="fill:url(#SVGID_1_);" points="74.258,333.255 106.086,351.743 279.382,251.689 247.23,234.339 			"/>
			<g>
				<polygon style="fill:#9593B5;" points="74.258,141.241 74.258,333.255 247.23,234.339 247.23,42.325 				"/>
				<polygon style="fill:#BBB8CE;" points="74.258,333.255 67.821,329.659 67.821,137.935 74.258,141.241 				"/>
				<polygon style="fill:#EBEAF0;" points="67.821,137.935 240.352,38.927 247.23,42.325 74.258,141.241 				"/>
			</g>
			<g>
				<g>
					<polygon style="fill:#EBEAF0;" points="74.258,175.486 103.577,192.074 276.401,92.931 247.082,76.343 					"/>
					<polygon style="fill:#9593B5;" points="103.577,192.074 103.577,199.789 74.258,183.201 74.258,175.486 					"/>
					<polygon style="fill:#BBB8CE;" points="103.577,199.789 276.401,99.936 276.401,92.931 103.577,192.074 					"/>
				</g>
				<g>
					<g>
						<g>
							<path style="fill:#FFAD10;" d="M247.249,87.334c-2.581,1.49-6.765,1.49-9.345,0c-2.581-1.49-2.581-3.906,0-5.396
								c2.581-1.49,6.765-1.49,9.345,0C249.83,83.428,249.83,85.844,247.249,87.334z"/>
							<path style="opacity:0.64;fill:#FFCC85;" d="M249.184,70.242h-13.216v14.393c0,0.977,0.645,1.953,1.935,2.698
								c2.581,1.49,6.765,1.49,9.345,0c1.29-0.745,1.936-1.721,1.936-2.698l0,0V70.242z"/>
							<path style="fill:#FF5746;" d="M237.904,83.518c2.581,1.49,6.765,1.49,9.345,0c1.29-0.745,1.936-1.721,1.936-2.698v0v-9.004
								c-0.007,0.001-0.013,0.002-0.019,0.002c-0.08,0.909-0.713,1.805-1.916,2.499c-2.581,1.49-6.765,1.49-9.345,0
								c-1.199-0.692-1.834-1.585-1.918-2.491h-0.017v8.995C235.969,81.798,236.614,82.774,237.904,83.518z"/>
							<path style="fill:#FFAD10;" d="M247.249,72.94c-2.581,1.49-6.765,1.49-9.345,0c-2.581-1.49-2.581-3.906,0-5.396
								c2.581-1.49,6.765-1.49,9.345,0C249.83,69.035,249.83,71.45,247.249,72.94z"/>
							<path style="fill:#380200;" d="M247.249,68.234c-2.581,1.49-6.765,1.49-9.345,0c-2.581-1.49-2.581-3.906,0-5.396
								s6.765-1.49,9.345,0C249.83,64.329,249.83,66.744,247.249,68.234z"/>
							<rect x="235.968" y="61.95" style="fill:#380200;" width="13.216" height="3.587"/>
							<path style="fill:#736374;" d="M247.249,64.648c-2.581,1.49-6.765,1.49-9.345,0c-2.581-1.49-2.581-3.906,0-5.396
								c2.581-1.49,6.765-1.49,9.345,0C249.83,60.742,249.83,63.158,247.249,64.648z"/>
							<path style="opacity:0.36;fill:#FFCC85;" d="M245.052,63.151c-1.367,0.79-3.585,0.79-4.952,0s-1.368-2.07,0-2.859
								c1.368-0.789,3.585-0.789,4.952,0C246.42,61.081,246.42,62.361,245.052,63.151z"/>
						</g>
						<g>
							<path style="fill:#FFAD10;" d="M261.815,95.758c-2.581,1.49-6.765,1.49-9.345,0c-2.581-1.49-2.581-3.906,0-5.396
								c2.581-1.49,6.765-1.49,9.345,0C264.396,91.853,264.396,94.268,261.815,95.758z"/>
							<path style="opacity:0.64;fill:#FFCC85;" d="M263.75,78.667h-13.216V93.06c0,0.976,0.645,1.953,1.936,2.698
								c2.581,1.49,6.765,1.49,9.345,0c1.29-0.745,1.935-1.721,1.935-2.698l0,0V78.667z"/>
							<path style="fill:#FF5746;" d="M252.47,91.943c2.581,1.49,6.765,1.49,9.345,0c1.29-0.745,1.935-1.721,1.935-2.698v0v-9.004
								c-0.007,0-0.013,0.001-0.019,0.002c-0.08,0.909-0.713,1.805-1.916,2.499c-2.581,1.49-6.765,1.49-9.345,0
								c-1.199-0.692-1.834-1.585-1.918-2.491h-0.017v8.995C250.535,90.223,251.18,91.198,252.47,91.943z"/>
							<path style="fill:#FFAD10;" d="M261.815,81.365c-2.581,1.49-6.765,1.49-9.345,0c-2.581-1.49-2.581-3.906,0-5.396
								c2.581-1.49,6.765-1.49,9.345,0C264.396,77.459,264.396,79.875,261.815,81.365z"/>
							<path style="fill:#380200;" d="M261.815,76.659c-2.581,1.49-6.765,1.49-9.345,0c-2.581-1.49-2.581-3.906,0-5.396
								c2.581-1.49,6.765-1.49,9.345,0C264.396,72.754,264.396,75.169,261.815,76.659z"/>
							<rect x="250.534" y="70.374" style="fill:#380200;" width="13.216" height="3.587"/>
							<path style="fill:#736374;" d="M261.815,73.072c-2.581,1.49-6.765,1.49-9.345,0c-2.581-1.49-2.581-3.906,0-5.396
								c2.581-1.49,6.765-1.49,9.345,0C264.396,69.167,264.396,71.582,261.815,73.072z"/>
							<path style="opacity:0.36;fill:#FFCC85;" d="M259.618,71.576c-1.368,0.79-3.585,0.79-4.952,0c-1.368-0.79-1.368-2.07,0-2.859
								c1.368-0.79,3.585-0.79,4.952,0C260.986,69.506,260.986,70.786,259.618,71.576z"/>
						</g>
					</g>
					<g>
						<g>
							<polygon style="fill:#FF5746;" points="225.695,69.76 207.593,79.571 201.375,76.116 219.043,66.211 							"/>
							<polygon style="fill:#EC9227;" points="207.593,79.571 207.593,107.693 201.375,104.064 201.375,76.116 							"/>
							<polygon style="fill:#BBB8CE;" points="201.375,80.961 201.375,91.439 207.593,94.894 207.593,84.416 							"/>
							<polygon style="fill:#EC9227;" points="225.695,69.76 207.593,79.571 207.593,107.693 225.695,97.411 							"/>
							<polygon style="fill:#EBEAF0;" points="207.593,84.419 207.593,94.882 225.695,85.071 225.695,74.608 							"/>
						</g>
						<g>
							<polygon style="fill:#FF5746;" points="235.968,75.739 217.866,85.55 211.648,82.095 229.316,72.19 							"/>
							<polygon style="fill:#EC9227;" points="217.866,85.55 217.866,113.672 211.648,110.043 211.648,82.095 							"/>
							<polygon style="fill:#BBB8CE;" points="211.648,86.94 211.648,97.418 217.866,100.873 217.866,90.395 							"/>
							<polygon style="fill:#EC9227;" points="235.968,75.739 217.866,85.55 217.866,113.672 235.968,103.39 							"/>
							<polygon style="fill:#EBEAF0;" points="217.866,90.398 217.866,100.861 235.968,91.05 235.968,80.587 							"/>
						</g>
						<g>
							<polygon style="fill:#FF5746;" points="246.241,81.718 228.139,91.529 221.92,88.074 239.589,78.169 							"/>
							<polygon style="fill:#EC9227;" points="228.139,91.529 228.139,119.651 221.92,116.022 221.92,88.074 							"/>
							<polygon style="fill:#BBB8CE;" points="221.92,92.919 221.92,103.397 228.139,106.852 228.139,96.374 							"/>
							<polygon style="fill:#EC9227;" points="246.241,81.718 228.139,91.529 228.139,119.651 246.241,109.369 							"/>
							<polygon style="fill:#EBEAF0;" points="228.139,96.377 228.139,106.84 246.241,97.029 246.241,86.566 							"/>
						</g>
					</g>
					<g>
						<g>
							<polygon style="fill:#FF5746;" points="201.534,83.669 183.432,93.48 177.213,90.025 194.882,80.12 							"/>
							<polygon style="fill:#EC9227;" points="183.432,93.48 183.432,121.602 177.213,117.973 177.213,90.025 							"/>
							<polygon style="fill:#BBB8CE;" points="177.214,94.87 177.214,105.348 183.432,108.803 183.432,98.325 							"/>
							<polygon style="fill:#EC9227;" points="201.534,83.669 183.432,93.48 183.432,121.602 201.534,111.32 							"/>
							<polygon style="fill:#EBEAF0;" points="183.432,98.328 183.432,108.791 201.534,98.98 201.534,88.517 							"/>
						</g>
						<g>
							<polygon style="fill:#FF5746;" points="211.807,89.648 193.705,99.459 187.486,96.004 205.154,86.099 							"/>
							<polygon style="fill:#EC9227;" points="193.705,99.459 193.705,127.581 187.486,123.952 187.486,96.004 							"/>
							<polygon style="fill:#BBB8CE;" points="187.486,100.85 187.486,111.327 193.705,114.782 193.705,104.304 							"/>
							<polygon style="fill:#EC9227;" points="211.807,89.648 193.705,99.459 193.705,127.581 211.807,117.299 							"/>
							<polygon style="fill:#EBEAF0;" points="193.705,104.308 193.705,114.771 211.807,104.959 211.807,94.496 							"/>
						</g>
						<g>
							<polygon style="fill:#FF5746;" points="222.079,95.627 203.977,105.438 197.759,101.983 215.427,92.078 							"/>
							<polygon style="fill:#EC9227;" points="203.977,105.438 203.977,133.56 197.759,129.931 197.759,101.983 							"/>
							<polygon style="fill:#BBB8CE;" points="197.759,106.828 197.759,117.306 203.977,120.761 203.977,110.283 							"/>
							<polygon style="fill:#EC9227;" points="222.079,95.627 203.977,105.438 203.977,133.56 222.079,123.278 							"/>
							<polygon style="fill:#EBEAF0;" points="203.977,110.286 203.977,120.749 222.08,110.938 222.08,100.475 							"/>
						</g>
					</g>
					<g>
						<g>
							<polygon style="fill:#FF5746;" points="177.373,97.578 159.27,107.389 153.052,103.934 170.72,94.029 							"/>
							<polygon style="fill:#EC9227;" points="159.27,107.389 159.27,135.512 153.052,131.883 153.052,103.934 							"/>
							<polygon style="fill:#BBB8CE;" points="153.052,108.78 153.052,119.257 159.27,122.712 159.27,112.234 							"/>
							<polygon style="fill:#EC9227;" points="177.373,97.578 159.27,107.389 159.27,135.512 177.373,125.229 							"/>
							<polygon style="fill:#EBEAF0;" points="159.27,112.238 159.27,122.701 177.373,112.89 177.373,102.426 							"/>
						</g>
						<g>
							<polygon style="fill:#FF5746;" points="187.645,103.557 169.543,113.368 163.325,109.913 180.993,100.008 							"/>
							<polygon style="fill:#EC9227;" points="169.543,113.368 169.543,141.49 163.325,137.861 163.325,109.913 							"/>
							<polygon style="fill:#BBB8CE;" points="163.325,114.759 163.325,125.236 169.543,128.691 169.543,118.213 							"/>
							<polygon style="fill:#EC9227;" points="187.645,103.557 169.543,113.368 169.543,141.49 187.645,131.208 							"/>
							<polygon style="fill:#EBEAF0;" points="169.543,118.217 169.543,128.68 187.645,118.868 187.645,108.406 							"/>
						</g>
						<g>
							<polygon style="fill:#FF5746;" points="197.918,109.536 179.816,119.347 173.598,115.892 191.266,105.987 							"/>
							<polygon style="fill:#EC9227;" points="179.816,119.347 179.816,147.469 173.598,143.84 173.598,115.892 							"/>
							<polygon style="fill:#BBB8CE;" points="173.598,120.738 173.598,131.215 179.816,134.67 179.816,124.192 							"/>
							<polygon style="fill:#EC9227;" points="197.918,109.536 179.816,119.347 179.816,147.469 197.918,137.187 							"/>
							<polygon style="fill:#EBEAF0;" points="179.816,124.196 179.816,134.659 197.918,124.848 197.918,114.384 							"/>
						</g>
					</g>
					<g>
						<g>
							<path style="fill:#FFAD10;" d="M150.442,143.389c-2.581,1.49-6.765,1.49-9.345,0c-2.581-1.49-2.581-3.906,0-5.396
								c2.581-1.49,6.765-1.49,9.345,0C153.022,139.483,153.022,141.899,150.442,143.389z"/>
							<path style="opacity:0.64;fill:#FFCC85;" d="M152.377,126.298h-13.216v14.393c0,0.977,0.645,1.953,1.935,2.698
								c2.581,1.49,6.765,1.49,9.345,0c1.29-0.745,1.935-1.721,1.935-2.698l0,0V126.298z"/>
							<path style="fill:#FF5746;" d="M141.096,139.574c2.581,1.49,6.765,1.49,9.345,0c1.29-0.745,1.935-1.721,1.935-2.698v0v-9.004
								c-0.007,0-0.013,0.001-0.019,0.002c-0.08,0.909-0.713,1.805-1.916,2.499c-2.581,1.49-6.765,1.49-9.345,0
								c-1.199-0.692-1.834-1.585-1.918-2.491h-0.017v8.995C139.161,137.853,139.807,138.829,141.096,139.574z"/>
							<path style="fill:#FFAD10;" d="M150.442,128.995c-2.581,1.49-6.765,1.49-9.345,0c-2.581-1.49-2.581-3.906,0-5.396
								c2.581-1.49,6.765-1.49,9.345,0C153.022,125.09,153.022,127.505,150.442,128.995z"/>
							<path style="fill:#380200;" d="M150.442,124.29c-2.581,1.49-6.765,1.49-9.345,0c-2.581-1.49-2.581-3.906,0-5.396
								c2.581-1.49,6.765-1.49,9.345,0C153.022,120.384,153.022,122.8,150.442,124.29z"/>
							<rect x="139.161" y="118.005" style="fill:#380200;" width="13.216" height="3.587"/>
							<path style="fill:#736374;" d="M150.442,120.703c-2.581,1.49-6.765,1.49-9.345,0c-2.581-1.49-2.581-3.906,0-5.396
								c2.581-1.49,6.765-1.49,9.345,0C153.022,116.797,153.022,119.213,150.442,120.703z"/>
							<path style="opacity:0.36;fill:#FFCC85;" d="M148.245,119.206c-1.368,0.79-3.585,0.79-4.952,0s-1.368-2.07,0-2.859
								c1.368-0.789,3.585-0.789,4.952,0C149.613,117.136,149.613,118.417,148.245,119.206z"/>
						</g>
						<g>
							<path style="fill:#FFAD10;" d="M165.008,151.814c-2.581,1.49-6.765,1.49-9.345,0c-2.581-1.49-2.581-3.906,0-5.396
								c2.581-1.49,6.765-1.49,9.345,0C167.588,147.908,167.588,150.324,165.008,151.814z"/>
							<path style="opacity:0.64;fill:#FFCC85;" d="M166.943,134.722h-13.216v14.393c0,0.977,0.645,1.953,1.936,2.698
								c2.581,1.49,6.765,1.49,9.345,0c1.29-0.745,1.936-1.721,1.936-2.698l0,0V134.722z"/>
							<path style="fill:#FF5746;" d="M155.662,147.998c2.581,1.49,6.765,1.49,9.345,0c1.29-0.745,1.936-1.721,1.936-2.698v0v-9.004
								c-0.007,0.001-0.013,0.001-0.019,0.002c-0.08,0.909-0.713,1.805-1.916,2.499c-2.581,1.49-6.765,1.49-9.345,0
								c-1.199-0.692-1.834-1.585-1.918-2.491h-0.017v8.995C153.727,146.278,154.373,147.254,155.662,147.998z"/>
							<path style="fill:#FFAD10;" d="M165.008,137.42c-2.581,1.49-6.765,1.49-9.345,0c-2.581-1.49-2.581-3.906,0-5.396
								c2.581-1.49,6.765-1.49,9.345,0C167.588,133.514,167.588,135.93,165.008,137.42z"/>
							<path style="fill:#380200;" d="M165.008,132.714c-2.581,1.49-6.765,1.49-9.345,0c-2.581-1.49-2.581-3.906,0-5.396
								c2.581-1.49,6.765-1.49,9.345,0C167.588,128.809,167.588,131.225,165.008,132.714z"/>
							<rect x="153.727" y="126.43" style="fill:#380200;" width="13.216" height="3.587"/>
							<path style="fill:#736374;" d="M165.008,129.128c-2.581,1.49-6.765,1.49-9.345,0c-2.581-1.49-2.581-3.906,0-5.396
								c2.581-1.49,6.765-1.49,9.345,0C167.588,125.222,167.588,127.638,165.008,129.128z"/>
							<path style="opacity:0.36;fill:#FFCC85;" d="M162.811,127.631c-1.368,0.79-3.585,0.79-4.952,0s-1.368-2.07,0-2.859
								c1.367-0.789,3.585-0.789,4.952,0C164.179,125.561,164.179,126.841,162.811,127.631z"/>
						</g>
					</g>
					<g>
						<g>
							<path style="fill:#FFAD10;" d="M131.341,155.143c-2.581,1.49-6.765,1.49-9.345,0c-2.581-1.49-2.581-3.906,0-5.395
								c2.581-1.49,6.765-1.49,9.345,0S133.922,153.653,131.341,155.143z"/>
							<path style="opacity:0.64;fill:#FFCC85;" d="M133.277,138.052H120.06v14.393c0,0.977,0.645,1.953,1.936,2.698
								c2.581,1.49,6.765,1.49,9.345,0c1.29-0.745,1.936-1.721,1.936-2.698l0,0V138.052z"/>
							<path style="fill:#FF5746;" d="M121.996,151.328c2.581,1.49,6.765,1.49,9.345,0c1.29-0.745,1.936-1.721,1.936-2.698v0v-9.004
								c-0.007,0.001-0.013,0.001-0.019,0.002c-0.08,0.909-0.713,1.805-1.916,2.499c-2.581,1.49-6.765,1.49-9.345,0
								c-1.199-0.692-1.834-1.585-1.918-2.491h-0.017v8.995C120.061,149.607,120.706,150.583,121.996,151.328z"/>
							<path style="fill:#FFAD10;" d="M131.341,140.75c-2.581,1.49-6.765,1.49-9.345,0c-2.581-1.49-2.581-3.906,0-5.396
								c2.581-1.49,6.765-1.49,9.345,0S133.922,139.26,131.341,140.75z"/>
							<path style="fill:#380200;" d="M131.341,136.044c-2.581,1.49-6.765,1.49-9.345,0c-2.581-1.49-2.581-3.906,0-5.396
								c2.581-1.49,6.765-1.49,9.345,0C133.922,132.139,133.922,134.554,131.341,136.044z"/>
							<rect x="120.06" y="129.76" style="fill:#380200;" width="13.216" height="3.587"/>
							<path style="fill:#736374;" d="M131.341,132.457c-2.581,1.49-6.765,1.49-9.345,0c-2.581-1.49-2.581-3.906,0-5.396
								c2.581-1.49,6.765-1.49,9.345,0C133.922,128.552,133.922,130.967,131.341,132.457z"/>
							<path style="opacity:0.36;fill:#FFCC85;" d="M129.145,130.961c-1.368,0.79-3.585,0.79-4.952,0
								c-1.368-0.79-1.368-2.07,0-2.859c1.368-0.79,3.585-0.79,4.952,0C130.512,128.891,130.512,130.171,129.145,130.961z"/>
						</g>
						<g>
							<path style="fill:#FFAD10;" d="M145.907,163.568c-2.581,1.49-6.765,1.49-9.345,0c-2.581-1.49-2.581-3.906,0-5.395
								c2.581-1.49,6.765-1.49,9.345,0C148.488,159.663,148.488,162.078,145.907,163.568z"/>
							<path style="opacity:0.64;fill:#FFCC85;" d="M147.843,146.477h-13.216v14.393c0,0.977,0.645,1.953,1.935,2.698
								c2.581,1.49,6.765,1.49,9.345,0c1.29-0.745,1.935-1.722,1.935-2.698l0,0V146.477z"/>
							<path style="fill:#FF5746;" d="M136.562,159.753c2.581,1.49,6.765,1.49,9.345,0c1.29-0.745,1.935-1.721,1.935-2.698v0v-9.004
								c-0.006,0.001-0.013,0.002-0.019,0.002c-0.08,0.909-0.713,1.805-1.916,2.499c-2.581,1.49-6.765,1.49-9.345,0
								c-1.199-0.692-1.834-1.585-1.918-2.491h-0.017v8.995C134.627,158.032,135.272,159.008,136.562,159.753z"/>
							<path style="fill:#FFAD10;" d="M145.907,149.175c-2.581,1.49-6.765,1.49-9.345,0c-2.581-1.49-2.581-3.906,0-5.396
								c2.581-1.49,6.765-1.49,9.345,0C148.488,145.269,148.488,147.685,145.907,149.175z"/>
							<path style="fill:#380200;" d="M145.907,144.469c-2.581,1.49-6.765,1.49-9.345,0c-2.581-1.49-2.581-3.906,0-5.396
								c2.581-1.49,6.765-1.49,9.345,0C148.488,140.563,148.488,142.979,145.907,144.469z"/>
							<rect x="134.626" y="138.184" style="fill:#380200;" width="13.216" height="3.587"/>
							<path style="fill:#736374;" d="M145.907,140.882c-2.581,1.49-6.765,1.49-9.345,0c-2.581-1.49-2.581-3.906,0-5.395
								c2.581-1.49,6.765-1.49,9.345,0C148.488,136.977,148.488,139.392,145.907,140.882z"/>
							<path style="opacity:0.36;fill:#FFCC85;" d="M143.711,139.386c-1.368,0.79-3.585,0.79-4.952,0
								c-1.368-0.79-1.368-2.07,0-2.859c1.368-0.79,3.585-0.79,4.952,0C145.078,137.316,145.078,138.596,143.711,139.386z"/>
						</g>
					</g>
					<g>
						<g>
							<path style="fill:#FFAD10;" d="M112.241,166.898c-2.581,1.49-6.765,1.49-9.345,0c-2.581-1.49-2.581-3.906,0-5.396
								c2.581-1.49,6.765-1.49,9.345,0C114.821,162.992,114.821,165.408,112.241,166.898z"/>
							<path style="fill:#B9EAF0;" d="M114.176,149.807H100.96V164.2c0,0.977,0.645,1.953,1.936,2.698
								c2.581,1.49,6.765,1.49,9.345,0c1.29-0.745,1.936-1.721,1.936-2.698l0,0V149.807z"/>
							<path style="fill:#00A1BE;" d="M102.895,163.083c2.581,1.49,6.765,1.49,9.345,0c1.29-0.745,1.936-1.721,1.936-2.698v0v-9.004
								c-0.007,0.001-0.013,0.002-0.019,0.002c-0.08,0.909-0.713,1.805-1.916,2.499c-2.581,1.49-6.765,1.49-9.345,0
								c-1.199-0.692-1.834-1.585-1.918-2.491h-0.017v8.995C100.96,161.362,101.606,162.338,102.895,163.083z"/>
							<path style="fill:#00A1BE;" d="M112.241,152.505c-2.581,1.49-6.765,1.49-9.345,0c-2.581-1.49-2.581-3.906,0-5.396
								c2.581-1.49,6.765-1.49,9.345,0C114.821,148.599,114.821,151.015,112.241,152.505z"/>
							<path style="fill:#380200;" d="M112.241,147.799c-2.581,1.49-6.765,1.49-9.345,0c-2.581-1.49-2.581-3.906,0-5.396
								c2.581-1.49,6.765-1.49,9.345,0C114.821,143.893,114.821,146.309,112.241,147.799z"/>
							<rect x="100.96" y="141.514" style="fill:#380200;" width="13.216" height="3.587"/>
							<path style="fill:#736374;" d="M112.241,144.212c-2.581,1.49-6.765,1.49-9.345,0c-2.581-1.49-2.581-3.906,0-5.396
								c2.581-1.49,6.765-1.49,9.345,0C114.821,140.306,114.821,142.722,112.241,144.212z"/>
							<path style="opacity:0.36;fill:#FFCC85;" d="M110.044,142.715c-1.368,0.79-3.585,0.79-4.952,0
								c-1.368-0.79-1.368-2.07,0-2.859c1.368-0.789,3.585-0.789,4.952,0C111.412,140.646,111.412,141.926,110.044,142.715z"/>
						</g>
						<g>
							<path style="fill:#FFAD10;" d="M126.807,175.323c-2.581,1.49-6.765,1.49-9.345,0c-2.581-1.49-2.581-3.906,0-5.395
								c2.581-1.49,6.765-1.49,9.345,0C129.387,171.417,129.387,173.833,126.807,175.323z"/>
							<path style="fill:#B9EAF0;" d="M128.742,158.232h-13.216v14.393c0,0.977,0.645,1.953,1.936,2.698
								c2.581,1.49,6.765,1.49,9.345,0c1.29-0.745,1.936-1.721,1.936-2.698l0,0V158.232z"/>
							<path style="fill:#00A1BE;" d="M117.461,171.508c2.581,1.49,6.765,1.49,9.345,0c1.29-0.745,1.936-1.721,1.936-2.698v0v-9.004
								c-0.007,0.001-0.013,0.001-0.019,0.002c-0.08,0.909-0.713,1.805-1.916,2.499c-2.581,1.49-6.765,1.49-9.345,0
								c-1.199-0.692-1.834-1.585-1.918-2.491h-0.017v8.995C115.526,169.787,116.172,170.763,117.461,171.508z"/>
							<path style="fill:#00A1BE;" d="M126.807,160.929c-2.581,1.49-6.765,1.49-9.345,0c-2.581-1.49-2.581-3.906,0-5.396
								c2.581-1.49,6.765-1.49,9.345,0C129.387,157.024,129.387,159.439,126.807,160.929z"/>
							<path style="fill:#380200;" d="M126.807,156.224c-2.581,1.49-6.765,1.49-9.345,0c-2.581-1.49-2.581-3.906,0-5.396
								c2.581-1.49,6.765-1.49,9.345,0C129.387,152.318,129.387,154.734,126.807,156.224z"/>
							<rect x="115.526" y="149.939" style="fill:#380200;" width="13.216" height="3.587"/>
							<path style="fill:#736374;" d="M126.807,152.637c-2.581,1.49-6.765,1.49-9.345,0c-2.581-1.49-2.581-3.906,0-5.396
								c2.581-1.49,6.765-1.49,9.345,0C129.387,148.731,129.387,151.147,126.807,152.637z"/>
							<path style="opacity:0.36;fill:#FFCC85;" d="M124.61,151.14c-1.368,0.79-3.585,0.79-4.952,0s-1.368-2.07,0-2.859
								c1.368-0.79,3.585-0.79,4.952,0C125.978,149.07,125.978,150.351,124.61,151.14z"/>
						</g>
					</g>
					<g>
						<g>
							<path style="fill:#FFAD10;" d="M93.583,177.164c-2.581,1.49-6.765,1.49-9.345,0c-2.581-1.49-2.581-3.906,0-5.395
								c2.581-1.49,6.765-1.49,9.345,0C96.163,173.259,96.163,175.674,93.583,177.164z"/>
							<path style="fill:#B9EAF0;" d="M95.518,160.073H82.302v14.393c0,0.977,0.645,1.953,1.935,2.698
								c2.581,1.49,6.765,1.49,9.345,0c1.29-0.745,1.936-1.721,1.936-2.698l0,0V160.073z"/>
							<path style="fill:#00A1BE;" d="M84.237,173.349c2.581,1.49,6.765,1.49,9.345,0c1.29-0.745,1.936-1.721,1.936-2.698v0v-9.004
								c-0.007,0.001-0.013,0.002-0.019,0.002c-0.08,0.909-0.713,1.805-1.916,2.499c-2.581,1.49-6.765,1.49-9.345,0
								c-1.199-0.692-1.834-1.585-1.918-2.491h-0.017v8.995C82.302,171.628,82.948,172.604,84.237,173.349z"/>
							<path style="fill:#00A1BE;" d="M93.583,162.771c-2.581,1.49-6.765,1.49-9.345,0c-2.581-1.49-2.581-3.906,0-5.396
								c2.581-1.49,6.765-1.49,9.345,0C96.163,158.865,96.163,161.281,93.583,162.771z"/>
							<path style="fill:#380200;" d="M93.583,158.065c-2.581,1.49-6.765,1.49-9.345,0c-2.581-1.49-2.581-3.906,0-5.395
								c2.581-1.49,6.765-1.49,9.345,0C96.163,154.16,96.163,156.575,93.583,158.065z"/>
							<rect x="82.302" y="151.781" style="fill:#380200;" width="13.216" height="3.587"/>
							<path style="fill:#736374;" d="M93.583,154.478c-2.581,1.49-6.765,1.49-9.345,0c-2.581-1.49-2.581-3.906,0-5.396
								c2.581-1.49,6.765-1.49,9.345,0C96.163,150.573,96.163,152.988,93.583,154.478z"/>
							<path style="opacity:0.36;fill:#FFCC85;" d="M91.386,152.982c-1.368,0.79-3.585,0.79-4.952,0c-1.368-0.79-1.368-2.07,0-2.859
								c1.368-0.79,3.585-0.79,4.952,0C92.754,150.912,92.754,152.192,91.386,152.982z"/>
						</g>
						<g>
							<path style="fill:#FFAD10;" d="M108.149,185.589c-2.581,1.49-6.765,1.49-9.345,0c-2.581-1.49-2.581-3.906,0-5.396
								c2.581-1.49,6.765-1.49,9.345,0C110.729,181.683,110.729,184.099,108.149,185.589z"/>
							<path style="fill:#B9EAF0;" d="M110.084,168.498H96.868v14.393c0,0.977,0.645,1.953,1.935,2.698
								c2.581,1.49,6.765,1.49,9.345,0c1.29-0.745,1.936-1.721,1.936-2.698l0,0V168.498z"/>
							<path style="fill:#00A1BE;" d="M98.803,181.774c2.581,1.49,6.765,1.49,9.345,0c1.29-0.745,1.936-1.721,1.936-2.698v0v-9.004
								c-0.007,0.001-0.013,0.001-0.019,0.002c-0.08,0.909-0.713,1.805-1.916,2.499c-2.581,1.49-6.765,1.49-9.345,0
								c-1.199-0.692-1.834-1.585-1.918-2.491h-0.017v8.995C96.868,180.053,97.513,181.029,98.803,181.774z"/>
							<path style="fill:#00A1BE;" d="M108.149,171.196c-2.581,1.49-6.765,1.49-9.345,0c-2.581-1.49-2.581-3.906,0-5.396
								s6.765-1.49,9.345,0C110.729,167.29,110.729,169.706,108.149,171.196z"/>
							<path style="fill:#380200;" d="M108.149,166.49c-2.581,1.49-6.765,1.49-9.345,0c-2.581-1.49-2.581-3.906,0-5.396
								c2.581-1.49,6.765-1.49,9.345,0C110.729,162.584,110.729,165,108.149,166.49z"/>
							<rect x="96.868" y="160.205" style="fill:#380200;" width="13.216" height="3.587"/>
							<path style="fill:#736374;" d="M108.149,162.903c-2.581,1.49-6.765,1.49-9.345,0c-2.581-1.49-2.581-3.906,0-5.395
								c2.581-1.49,6.765-1.49,9.345,0C110.729,158.997,110.729,161.413,108.149,162.903z"/>
							<path style="opacity:0.36;fill:#FFCC85;" d="M105.952,161.406c-1.368,0.79-3.585,0.79-4.952,0
								c-1.368-0.789-1.368-2.07,0-2.859c1.368-0.789,3.585-0.789,4.952,0C107.32,159.337,107.32,160.617,105.952,161.406z"/>
						</g>
					</g>
				</g>
			</g>
			<g>
				<g>
					<polygon style="fill:#EBEAF0;" points="74.258,262.975 103.577,279.563 276.401,180.42 247.082,163.832 					"/>
					<polygon style="fill:#9593B5;" points="103.577,279.563 103.577,287.278 74.258,270.69 74.258,262.975 					"/>
					<polygon style="fill:#BBB8CE;" points="103.577,287.278 276.401,187.425 276.401,180.42 103.577,279.563 					"/>
				</g>
				<g>
					<g>
						<g>
							<path style="fill:#FFAD10;" d="M247.249,174.823c-2.581,1.49-6.765,1.49-9.345,0c-2.581-1.49-2.581-3.906,0-5.395
								c2.581-1.49,6.765-1.49,9.345,0S249.83,173.333,247.249,174.823z"/>
							<path style="opacity:0.64;fill:#FFCC85;" d="M249.184,157.731h-13.216v14.393c0,0.977,0.645,1.953,1.935,2.698
								c2.581,1.49,6.765,1.49,9.345,0c1.29-0.745,1.936-1.721,1.936-2.698l0,0V157.731z"/>
							<path style="fill:#FF5746;" d="M237.904,171.007c2.581,1.49,6.765,1.49,9.345,0c1.29-0.745,1.936-1.721,1.936-2.698v0v-9.004
								c-0.007,0.001-0.013,0.001-0.019,0.002c-0.08,0.909-0.713,1.805-1.916,2.499c-2.581,1.49-6.765,1.49-9.345,0
								c-1.199-0.692-1.834-1.585-1.918-2.491h-0.017v8.995C235.969,169.287,236.614,170.263,237.904,171.007z"/>
							<path style="fill:#FFAD10;" d="M247.249,160.429c-2.581,1.49-6.765,1.49-9.345,0c-2.581-1.49-2.581-3.906,0-5.396
								s6.765-1.49,9.345,0C249.83,156.524,249.83,158.939,247.249,160.429z"/>
							<path style="fill:#380200;" d="M247.249,155.723c-2.581,1.49-6.765,1.49-9.345,0c-2.581-1.49-2.581-3.906,0-5.396
								c2.581-1.49,6.765-1.49,9.345,0C249.83,151.818,249.83,154.234,247.249,155.723z"/>
							<rect x="235.968" y="149.439" style="fill:#380200;" width="13.216" height="3.587"/>
							<path style="fill:#736374;" d="M247.249,152.137c-2.581,1.49-6.765,1.49-9.345,0c-2.581-1.49-2.581-3.906,0-5.396
								s6.765-1.49,9.345,0C249.83,148.231,249.83,150.647,247.249,152.137z"/>
							<path style="opacity:0.36;fill:#FFCC85;" d="M245.052,150.64c-1.367,0.789-3.585,0.789-4.952,0
								c-1.368-0.79-1.368-2.07,0-2.859c1.368-0.79,3.585-0.79,4.952,0C246.42,148.57,246.42,149.85,245.052,150.64z"/>
						</g>
						<g>
							<path style="fill:#FFAD10;" d="M261.815,183.247c-2.581,1.49-6.765,1.49-9.345,0c-2.581-1.49-2.581-3.906,0-5.395
								c2.581-1.49,6.765-1.49,9.345,0C264.396,179.342,264.396,181.757,261.815,183.247z"/>
							<path style="opacity:0.64;fill:#FFCC85;" d="M263.75,166.156h-13.216v14.393c0,0.977,0.645,1.953,1.936,2.698
								c2.581,1.49,6.765,1.49,9.345,0c1.29-0.745,1.935-1.721,1.935-2.698l0,0V166.156z"/>
							<path style="fill:#FF5746;" d="M252.47,179.432c2.581,1.49,6.765,1.49,9.345,0c1.29-0.745,1.935-1.721,1.935-2.698v0v-9.004
								c-0.007,0.001-0.013,0.002-0.019,0.002c-0.08,0.909-0.713,1.805-1.916,2.499c-2.581,1.49-6.765,1.49-9.345,0
								c-1.199-0.692-1.834-1.585-1.918-2.491h-0.017v8.995C250.535,177.712,251.18,178.687,252.47,179.432z"/>
							<path style="fill:#FFAD10;" d="M261.815,168.854c-2.581,1.49-6.765,1.49-9.345,0c-2.581-1.49-2.581-3.906,0-5.396
								c2.581-1.49,6.765-1.49,9.345,0C264.396,164.948,264.396,167.364,261.815,168.854z"/>
							<path style="fill:#380200;" d="M261.815,164.148c-2.581,1.49-6.765,1.49-9.345,0c-2.581-1.49-2.581-3.906,0-5.396
								c2.581-1.49,6.765-1.49,9.345,0C264.396,160.243,264.396,162.658,261.815,164.148z"/>
							<rect x="250.534" y="157.864" style="fill:#380200;" width="13.216" height="3.587"/>
							<path style="fill:#736374;" d="M261.815,160.561c-2.581,1.49-6.765,1.49-9.345,0c-2.581-1.49-2.581-3.906,0-5.395
								c2.581-1.49,6.765-1.49,9.345,0C264.396,156.656,264.396,159.071,261.815,160.561z"/>
							<path style="opacity:0.36;fill:#FFCC85;" d="M259.618,159.065c-1.368,0.79-3.585,0.79-4.952,0
								c-1.368-0.79-1.368-2.07,0-2.859c1.368-0.79,3.585-0.79,4.952,0C260.986,156.995,260.986,158.275,259.618,159.065z"/>
						</g>
					</g>
					<g>
						<g>
							<polygon style="fill:#FF5746;" points="225.695,157.249 207.593,167.06 201.375,163.605 219.043,153.7 							"/>
							<polygon style="fill:#EC9227;" points="207.593,167.06 207.593,195.182 201.375,191.553 201.375,163.605 							"/>
							<polygon style="fill:#BBB8CE;" points="201.375,168.45 201.375,178.928 207.593,182.383 207.593,171.905 							"/>
							<polygon style="fill:#EC9227;" points="225.695,157.249 207.593,167.06 207.593,195.182 225.695,184.9 							"/>
							<polygon style="fill:#EBEAF0;" points="207.593,171.908 207.593,182.371 225.695,172.56 225.695,162.097 							"/>
						</g>
						<g>
							<polygon style="fill:#FF5746;" points="235.968,163.228 217.866,173.039 211.648,169.584 229.316,159.679 							"/>
							<polygon style="fill:#EC9227;" points="217.866,173.039 217.866,201.161 211.648,197.532 211.648,169.584 							"/>
							<polygon style="fill:#BBB8CE;" points="211.648,174.429 211.648,184.907 217.866,188.362 217.866,177.884 							"/>
							<polygon style="fill:#EC9227;" points="235.968,163.228 217.866,173.039 217.866,201.161 235.968,190.879 							"/>
							<polygon style="fill:#EBEAF0;" points="217.866,177.887 217.866,188.35 235.968,178.539 235.968,168.076 							"/>
						</g>
						<g>
							<polygon style="fill:#FF5746;" points="246.241,169.207 228.139,179.018 221.92,175.563 239.589,165.658 							"/>
							<polygon style="fill:#EC9227;" points="228.139,179.018 228.139,207.14 221.92,203.511 221.92,175.563 							"/>
							<polygon style="fill:#BBB8CE;" points="221.92,180.408 221.92,190.886 228.139,194.341 228.139,183.863 							"/>
							<polygon style="fill:#EC9227;" points="246.241,169.207 228.139,179.018 228.139,207.14 246.241,196.858 							"/>
							<polygon style="fill:#EBEAF0;" points="228.139,183.866 228.139,194.329 246.241,184.518 246.241,174.055 							"/>
						</g>
					</g>
					<g>
						<g>
							<polygon style="fill:#FF5746;" points="201.534,171.158 183.432,180.969 177.213,177.514 194.882,167.609 							"/>
							<polygon style="fill:#EC9227;" points="183.432,180.969 183.432,209.091 177.213,205.462 177.213,177.514 							"/>
							<polygon style="fill:#BBB8CE;" points="177.214,182.359 177.214,192.837 183.432,196.292 183.432,185.814 							"/>
							<polygon style="fill:#EC9227;" points="201.534,171.158 183.432,180.969 183.432,209.091 201.534,198.809 							"/>
							<polygon style="fill:#EBEAF0;" points="183.432,185.818 183.432,196.281 201.534,186.469 201.534,176.007 							"/>
						</g>
						<g>
							<polygon style="fill:#FF5746;" points="211.807,177.137 193.705,186.948 187.486,183.493 205.154,173.588 							"/>
							<polygon style="fill:#EC9227;" points="193.705,186.948 193.705,215.07 187.486,211.441 187.486,183.493 							"/>
							<polygon style="fill:#BBB8CE;" points="187.486,188.339 187.486,198.816 193.705,202.271 193.705,191.793 							"/>
							<polygon style="fill:#EC9227;" points="211.807,177.137 193.705,186.948 193.705,215.07 211.807,204.788 							"/>
							<polygon style="fill:#EBEAF0;" points="193.705,191.797 193.705,202.26 211.807,192.448 211.807,181.985 							"/>
						</g>
						<g>
							<polygon style="fill:#FF5746;" points="222.079,183.116 203.977,192.927 197.759,189.472 215.427,179.567 							"/>
							<polygon style="fill:#EC9227;" points="203.977,192.927 203.977,221.049 197.759,217.42 197.759,189.472 							"/>
							<polygon style="fill:#BBB8CE;" points="197.759,194.318 197.759,204.795 203.977,208.25 203.977,197.772 							"/>
							<polygon style="fill:#EC9227;" points="222.079,183.116 203.977,192.927 203.977,221.049 222.079,210.767 							"/>
							<polygon style="fill:#EBEAF0;" points="203.977,197.776 203.977,208.238 222.08,198.427 222.08,187.964 							"/>
						</g>
					</g>
					<g>
						<g>
							<polygon style="fill:#FF5746;" points="177.373,185.067 159.27,194.878 153.052,191.423 170.72,181.518 							"/>
							<polygon style="fill:#EC9227;" points="159.27,194.878 159.27,223.001 153.052,219.372 153.052,191.423 							"/>
							<polygon style="fill:#BBB8CE;" points="153.052,196.269 153.052,206.746 159.27,210.201 159.27,199.723 							"/>
							<polygon style="fill:#EC9227;" points="177.373,185.067 159.27,194.878 159.27,223.001 177.373,212.718 							"/>
							<polygon style="fill:#EBEAF0;" points="159.27,199.727 159.27,210.19 177.373,200.378 177.373,189.916 							"/>
						</g>
						<g>
							<polygon style="fill:#FF5746;" points="187.645,191.046 169.543,200.857 163.325,197.402 180.993,187.497 							"/>
							<polygon style="fill:#EC9227;" points="169.543,200.857 169.543,228.98 163.325,225.35 163.325,197.402 							"/>
							<polygon style="fill:#BBB8CE;" points="163.325,202.248 163.325,212.725 169.543,216.18 169.543,205.702 							"/>
							<polygon style="fill:#EC9227;" points="187.645,191.046 169.543,200.857 169.543,228.98 187.645,218.697 							"/>
							<polygon style="fill:#EBEAF0;" points="169.543,205.706 169.543,216.169 187.645,206.357 187.645,195.895 							"/>
						</g>
						<g>
							<polygon style="fill:#FF5746;" points="197.918,197.025 179.816,206.836 173.598,203.381 191.266,193.476 							"/>
							<polygon style="fill:#EC9227;" points="179.816,206.836 179.816,234.959 173.598,231.329 173.598,203.381 							"/>
							<polygon style="fill:#BBB8CE;" points="173.598,208.227 173.598,218.704 179.816,222.159 179.816,211.681 							"/>
							<polygon style="fill:#EC9227;" points="197.918,197.025 179.816,206.836 179.816,234.959 197.918,224.676 							"/>
							<polygon style="fill:#EBEAF0;" points="179.816,211.685 179.816,222.148 197.918,212.337 197.918,201.874 							"/>
						</g>
					</g>
					<g>
						<g>
							<path style="fill:#FFAD10;" d="M150.442,230.878c-2.581,1.49-6.765,1.49-9.345,0c-2.581-1.49-2.581-3.906,0-5.396
								c2.581-1.49,6.765-1.49,9.345,0C153.022,226.972,153.022,229.388,150.442,230.878z"/>
							<path style="opacity:0.64;fill:#FFCC85;" d="M152.377,213.787h-13.216v14.393c0,0.977,0.645,1.953,1.935,2.698
								c2.581,1.49,6.765,1.49,9.345,0c1.29-0.745,1.935-1.721,1.935-2.698l0,0V213.787z"/>
							<path style="fill:#FF5746;" d="M141.096,227.063c2.581,1.49,6.765,1.49,9.345,0c1.29-0.745,1.935-1.721,1.935-2.698v0v-9.004
								c-0.007,0.001-0.013,0.002-0.019,0.002c-0.08,0.909-0.713,1.805-1.916,2.499c-2.581,1.49-6.765,1.49-9.345,0
								c-1.199-0.692-1.834-1.585-1.918-2.491h-0.017v8.995C139.161,225.342,139.807,226.318,141.096,227.063z"/>
							<path style="fill:#FFAD10;" d="M150.442,216.484c-2.581,1.49-6.765,1.49-9.345,0c-2.581-1.49-2.581-3.906,0-5.396
								c2.581-1.49,6.765-1.49,9.345,0C153.022,212.579,153.022,214.995,150.442,216.484z"/>
							<path style="fill:#380200;" d="M150.442,211.779c-2.581,1.49-6.765,1.49-9.345,0c-2.581-1.49-2.581-3.906,0-5.395
								c2.581-1.49,6.765-1.49,9.345,0C153.022,207.873,153.022,210.289,150.442,211.779z"/>
							<rect x="139.161" y="205.494" style="fill:#380200;" width="13.216" height="3.587"/>
							<path style="fill:#736374;" d="M150.442,208.192c-2.581,1.49-6.765,1.49-9.345,0c-2.581-1.49-2.581-3.906,0-5.396
								c2.581-1.49,6.765-1.49,9.345,0C153.022,204.286,153.022,206.702,150.442,208.192z"/>
							<path style="opacity:0.36;fill:#FFCC85;" d="M148.245,206.695c-1.368,0.79-3.585,0.79-4.952,0
								c-1.368-0.79-1.368-2.07,0-2.859c1.368-0.79,3.585-0.79,4.952,0S149.613,205.906,148.245,206.695z"/>
						</g>
						<g>
							<path style="fill:#FFAD10;" d="M165.008,239.303c-2.581,1.49-6.765,1.49-9.345,0c-2.581-1.49-2.581-3.906,0-5.396
								c2.581-1.49,6.765-1.49,9.345,0C167.588,235.397,167.588,237.813,165.008,239.303z"/>
							<path style="opacity:0.64;fill:#FFCC85;" d="M166.943,222.211h-13.216v14.393c0,0.977,0.645,1.953,1.936,2.698
								c2.581,1.49,6.765,1.49,9.345,0c1.29-0.745,1.936-1.721,1.936-2.698l0,0V222.211z"/>
							<path style="fill:#FF5746;" d="M155.662,235.487c2.581,1.49,6.765,1.49,9.345,0c1.29-0.745,1.936-1.721,1.936-2.698v0v-9.004
								c-0.007,0.001-0.013,0.001-0.019,0.002c-0.08,0.909-0.713,1.805-1.916,2.499c-2.581,1.49-6.765,1.49-9.345,0
								c-1.199-0.692-1.834-1.585-1.918-2.491h-0.017v8.995C153.727,233.767,154.373,234.743,155.662,235.487z"/>
							<path style="fill:#FFAD10;" d="M165.008,224.909c-2.581,1.49-6.765,1.49-9.345,0c-2.581-1.49-2.581-3.906,0-5.396
								c2.581-1.49,6.765-1.49,9.345,0C167.588,221.004,167.588,223.419,165.008,224.909z"/>
							<path style="fill:#380200;" d="M165.008,220.203c-2.581,1.49-6.765,1.49-9.345,0c-2.581-1.49-2.581-3.906,0-5.395
								c2.581-1.49,6.765-1.49,9.345,0C167.588,216.298,167.588,218.714,165.008,220.203z"/>
							<rect x="153.727" y="213.919" style="fill:#380200;" width="13.216" height="3.587"/>
							<path style="fill:#736374;" d="M165.008,216.617c-2.581,1.49-6.765,1.49-9.345,0c-2.581-1.49-2.581-3.906,0-5.396
								c2.581-1.49,6.765-1.49,9.345,0C167.588,212.711,167.588,215.127,165.008,216.617z"/>
							<path style="opacity:0.36;fill:#FFCC85;" d="M162.811,215.12c-1.368,0.79-3.585,0.79-4.952,0c-1.368-0.79-1.368-2.07,0-2.859
								c1.367-0.789,3.585-0.789,4.952,0C164.179,213.05,164.179,214.331,162.811,215.12z"/>
						</g>
					</g>
					<g>
						<g>
							<path style="fill:#FFAD10;" d="M131.341,242.632c-2.581,1.49-6.765,1.49-9.345,0c-2.581-1.49-2.581-3.906,0-5.396
								c2.581-1.49,6.765-1.49,9.345,0S133.922,241.142,131.341,242.632z"/>
							<path style="opacity:0.64;fill:#FFCC85;" d="M133.277,225.541H120.06v14.393c0,0.977,0.645,1.953,1.936,2.698
								c2.581,1.49,6.765,1.49,9.345,0c1.29-0.745,1.936-1.721,1.936-2.698l0,0V225.541z"/>
							<path style="fill:#FF5746;" d="M121.996,238.817c2.581,1.49,6.765,1.49,9.345,0c1.29-0.745,1.936-1.721,1.936-2.698v0v-9.004
								c-0.007,0-0.013,0.001-0.019,0.002c-0.08,0.909-0.713,1.805-1.916,2.499c-2.581,1.49-6.765,1.49-9.345,0
								c-1.199-0.692-1.834-1.585-1.918-2.491h-0.017v8.995C120.061,237.096,120.706,238.072,121.996,238.817z"/>
							<path style="fill:#FFAD10;" d="M131.341,228.239c-2.581,1.49-6.765,1.49-9.345,0c-2.581-1.49-2.581-3.906,0-5.396
								c2.581-1.49,6.765-1.49,9.345,0C133.922,224.333,133.922,226.749,131.341,228.239z"/>
							<path style="fill:#380200;" d="M131.341,223.533c-2.581,1.49-6.765,1.49-9.345,0c-2.581-1.49-2.581-3.906,0-5.396
								c2.581-1.49,6.765-1.49,9.345,0C133.922,219.628,133.922,222.043,131.341,223.533z"/>
							<rect x="120.06" y="217.249" style="fill:#380200;" width="13.216" height="3.587"/>
							<path style="fill:#736374;" d="M131.341,219.946c-2.581,1.49-6.765,1.49-9.345,0c-2.581-1.49-2.581-3.906,0-5.396
								c2.581-1.49,6.765-1.49,9.345,0C133.922,216.041,133.922,218.456,131.341,219.946z"/>
							<path style="opacity:0.36;fill:#FFCC85;" d="M129.145,218.45c-1.368,0.789-3.585,0.789-4.952,0
								c-1.368-0.79-1.368-2.07,0-2.859c1.368-0.79,3.585-0.79,4.952,0C130.512,216.38,130.512,217.66,129.145,218.45z"/>
						</g>
						<g>
							<path style="fill:#FFAD10;" d="M145.907,251.057c-2.581,1.49-6.765,1.49-9.345,0c-2.581-1.49-2.581-3.906,0-5.395
								c2.581-1.49,6.765-1.49,9.345,0C148.488,247.152,148.488,249.567,145.907,251.057z"/>
							<path style="opacity:0.64;fill:#FFCC85;" d="M147.843,233.966h-13.216v14.393c0,0.977,0.645,1.953,1.935,2.698
								c2.581,1.49,6.765,1.49,9.345,0c1.29-0.745,1.935-1.721,1.935-2.698l0,0V233.966z"/>
							<path style="fill:#FF5746;" d="M136.562,247.242c2.581,1.49,6.765,1.49,9.345,0c1.29-0.745,1.935-1.721,1.935-2.698v0v-9.004
								c-0.006,0-0.013,0.001-0.019,0.002c-0.08,0.909-0.713,1.805-1.916,2.499c-2.581,1.49-6.765,1.49-9.345,0
								c-1.199-0.692-1.834-1.585-1.918-2.491h-0.017v8.995C134.627,245.521,135.272,246.497,136.562,247.242z"/>
							<path style="fill:#FFAD10;" d="M145.907,236.664c-2.581,1.49-6.765,1.49-9.345,0c-2.581-1.49-2.581-3.906,0-5.396
								c2.581-1.49,6.765-1.49,9.345,0C148.488,232.758,148.488,235.174,145.907,236.664z"/>
							<path style="fill:#380200;" d="M145.907,231.958c-2.581,1.49-6.765,1.49-9.345,0c-2.581-1.49-2.581-3.906,0-5.395
								c2.581-1.49,6.765-1.49,9.345,0C148.488,228.052,148.488,230.468,145.907,231.958z"/>
							<rect x="134.626" y="225.673" style="fill:#380200;" width="13.216" height="3.587"/>
							<path style="fill:#736374;" d="M145.907,228.371c-2.581,1.49-6.765,1.49-9.345,0c-2.581-1.49-2.581-3.906,0-5.396
								c2.581-1.49,6.765-1.49,9.345,0C148.488,224.466,148.488,226.881,145.907,228.371z"/>
							<path style="opacity:0.36;fill:#FFCC85;" d="M143.711,226.875c-1.368,0.79-3.585,0.79-4.952,0
								c-1.368-0.79-1.368-2.07,0-2.859c1.368-0.79,3.585-0.79,4.952,0C145.078,224.805,145.078,226.085,143.711,226.875z"/>
						</g>
					</g>
					<g>
						<g>
							<path style="fill:#FFAD10;" d="M112.241,254.387c-2.581,1.49-6.765,1.49-9.345,0c-2.581-1.49-2.581-3.906,0-5.396
								c2.581-1.49,6.765-1.49,9.345,0C114.821,250.481,114.821,252.897,112.241,254.387z"/>
							<path style="fill:#B9EAF0;" d="M114.176,237.296H100.96v14.393c0,0.977,0.645,1.953,1.936,2.698
								c2.581,1.49,6.765,1.49,9.345,0c1.29-0.745,1.936-1.721,1.936-2.698l0,0V237.296z"/>
							<path style="fill:#00A1BE;" d="M102.895,250.572c2.581,1.49,6.765,1.49,9.345,0c1.29-0.745,1.936-1.721,1.936-2.698v0v-9.004
								c-0.007,0-0.013,0.001-0.019,0.002c-0.08,0.909-0.713,1.805-1.916,2.499c-2.581,1.49-6.765,1.49-9.345,0
								c-1.199-0.692-1.834-1.585-1.918-2.491h-0.017v8.995C100.96,248.851,101.606,249.827,102.895,250.572z"/>
							<path style="fill:#00A1BE;" d="M112.241,239.994c-2.581,1.49-6.765,1.49-9.345,0c-2.581-1.49-2.581-3.906,0-5.396
								c2.581-1.49,6.765-1.49,9.345,0C114.821,236.088,114.821,238.504,112.241,239.994z"/>
							<path style="fill:#380200;" d="M112.241,235.288c-2.581,1.49-6.765,1.49-9.345,0c-2.581-1.49-2.581-3.906,0-5.395
								c2.581-1.49,6.765-1.49,9.345,0C114.821,231.382,114.821,233.798,112.241,235.288z"/>
							<rect x="100.96" y="229.003" style="fill:#380200;" width="13.216" height="3.587"/>
							<path style="fill:#736374;" d="M112.241,231.701c-2.581,1.49-6.765,1.49-9.345,0c-2.581-1.49-2.581-3.906,0-5.396
								c2.581-1.49,6.765-1.49,9.345,0C114.821,227.795,114.821,230.211,112.241,231.701z"/>
							<path style="opacity:0.36;fill:#FFCC85;" d="M110.044,230.204c-1.368,0.79-3.585,0.79-4.952,0
								c-1.368-0.79-1.368-2.07,0-2.859c1.368-0.79,3.585-0.79,4.952,0S111.412,229.415,110.044,230.204z"/>
						</g>
						<g>
							<path style="fill:#FFAD10;" d="M126.807,262.812c-2.581,1.49-6.765,1.49-9.345,0c-2.581-1.49-2.581-3.906,0-5.396
								c2.581-1.49,6.765-1.49,9.345,0C129.387,258.906,129.387,261.322,126.807,262.812z"/>
							<path style="fill:#B9EAF0;" d="M128.742,245.721h-13.216v14.393c0,0.977,0.645,1.953,1.936,2.698
								c2.581,1.49,6.765,1.49,9.345,0c1.29-0.745,1.936-1.721,1.936-2.698l0,0V245.721z"/>
							<path style="fill:#00A1BE;" d="M117.461,258.997c2.581,1.49,6.765,1.49,9.345,0c1.29-0.745,1.936-1.721,1.936-2.698v0v-9.004
								c-0.007,0.001-0.013,0.001-0.019,0.002c-0.08,0.909-0.713,1.805-1.916,2.499c-2.581,1.49-6.765,1.49-9.345,0
								c-1.199-0.692-1.834-1.585-1.918-2.491h-0.017v8.995C115.526,257.276,116.172,258.252,117.461,258.997z"/>
							<path style="fill:#00A1BE;" d="M126.807,248.418c-2.581,1.49-6.765,1.49-9.345,0c-2.581-1.49-2.581-3.906,0-5.396
								c2.581-1.49,6.765-1.49,9.345,0C129.387,244.513,129.387,246.928,126.807,248.418z"/>
							<path style="fill:#380200;" d="M126.807,243.713c-2.581,1.49-6.765,1.49-9.345,0c-2.581-1.49-2.581-3.906,0-5.396
								c2.581-1.49,6.765-1.49,9.345,0C129.387,239.807,129.387,242.223,126.807,243.713z"/>
							<rect x="115.526" y="237.428" style="fill:#380200;" width="13.216" height="3.587"/>
							<path style="fill:#736374;" d="M126.807,240.126c-2.581,1.49-6.765,1.49-9.345,0c-2.581-1.49-2.581-3.906,0-5.396
								c2.581-1.49,6.765-1.49,9.345,0C129.387,236.22,129.387,238.636,126.807,240.126z"/>
							<path style="opacity:0.36;fill:#FFCC85;" d="M124.61,238.629c-1.368,0.789-3.585,0.789-4.952,0
								c-1.368-0.79-1.368-2.07,0-2.859c1.368-0.79,3.585-0.79,4.952,0C125.978,236.56,125.978,237.84,124.61,238.629z"/>
						</g>
					</g>
					<g>
						<g>
							<path style="fill:#FFAD10;" d="M93.583,264.653c-2.581,1.49-6.765,1.49-9.345,0c-2.581-1.49-2.581-3.906,0-5.396
								c2.581-1.49,6.765-1.49,9.345,0C96.163,260.748,96.163,263.163,93.583,264.653z"/>
							<path style="fill:#B9EAF0;" d="M95.518,247.562H82.302v14.393c0,0.977,0.645,1.953,1.935,2.698
								c2.581,1.49,6.765,1.49,9.345,0c1.29-0.745,1.936-1.721,1.936-2.698l0,0V247.562z"/>
							<path style="fill:#00A1BE;" d="M84.237,260.838c2.581,1.49,6.765,1.49,9.345,0c1.29-0.745,1.936-1.721,1.936-2.698v0v-9.004
								c-0.007,0-0.013,0.001-0.019,0.002c-0.08,0.909-0.713,1.805-1.916,2.499c-2.581,1.49-6.765,1.49-9.345,0
								c-1.199-0.692-1.834-1.585-1.918-2.491h-0.017v8.995C82.302,259.117,82.948,260.093,84.237,260.838z"/>
							<path style="fill:#00A1BE;" d="M93.583,250.26c-2.581,1.49-6.765,1.49-9.345,0c-2.581-1.49-2.581-3.906,0-5.396
								c2.581-1.49,6.765-1.49,9.345,0C96.163,246.354,96.163,248.77,93.583,250.26z"/>
							<path style="fill:#380200;" d="M93.583,245.554c-2.581,1.49-6.765,1.49-9.345,0c-2.581-1.49-2.581-3.906,0-5.395
								c2.581-1.49,6.765-1.49,9.345,0C96.163,241.649,96.163,244.064,93.583,245.554z"/>
							<rect x="82.302" y="239.27" style="fill:#380200;" width="13.216" height="3.587"/>
							<path style="fill:#736374;" d="M93.583,241.967c-2.581,1.49-6.765,1.49-9.345,0c-2.581-1.49-2.581-3.906,0-5.396
								c2.581-1.49,6.765-1.49,9.345,0C96.163,238.062,96.163,240.477,93.583,241.967z"/>
							<path style="opacity:0.36;fill:#FFCC85;" d="M91.386,240.471c-1.368,0.79-3.585,0.79-4.952,0c-1.368-0.79-1.368-2.07,0-2.859
								s3.585-0.79,4.952,0C92.754,238.401,92.754,239.681,91.386,240.471z"/>
						</g>
						<g>
							<path style="fill:#FFAD10;" d="M108.149,273.078c-2.581,1.49-6.765,1.49-9.345,0c-2.581-1.49-2.581-3.906,0-5.396
								s6.765-1.49,9.345,0C110.729,269.172,110.729,271.588,108.149,273.078z"/>
							<path style="fill:#B9EAF0;" d="M110.084,255.987H96.868v14.393c0,0.977,0.645,1.953,1.935,2.698
								c2.581,1.49,6.765,1.49,9.345,0c1.29-0.745,1.936-1.721,1.936-2.698l0,0V255.987z"/>
							<path style="fill:#00A1BE;" d="M98.803,269.263c2.581,1.49,6.765,1.49,9.345,0c1.29-0.745,1.936-1.721,1.936-2.698v0v-9.004
								c-0.007,0-0.013,0.001-0.019,0.002c-0.08,0.909-0.713,1.805-1.916,2.499c-2.581,1.49-6.765,1.49-9.345,0
								c-1.199-0.692-1.834-1.585-1.918-2.491h-0.017v8.995C96.868,267.542,97.513,268.518,98.803,269.263z"/>
							<path style="fill:#00A1BE;" d="M108.149,258.685c-2.581,1.49-6.765,1.49-9.345,0c-2.581-1.49-2.581-3.906,0-5.396
								c2.581-1.49,6.765-1.49,9.345,0C110.729,254.779,110.729,257.195,108.149,258.685z"/>
							<path style="fill:#380200;" d="M108.149,253.979c-2.581,1.49-6.765,1.49-9.345,0c-2.581-1.49-2.581-3.906,0-5.395
								s6.765-1.49,9.345,0C110.729,250.073,110.729,252.489,108.149,253.979z"/>
							<rect x="96.868" y="247.694" style="fill:#380200;" width="13.216" height="3.587"/>
							<path style="fill:#736374;" d="M108.149,250.392c-2.581,1.49-6.765,1.49-9.345,0c-2.581-1.49-2.581-3.906,0-5.396
								c2.581-1.49,6.765-1.49,9.345,0C110.729,246.486,110.729,248.902,108.149,250.392z"/>
							<path style="opacity:0.36;fill:#FFCC85;" d="M105.952,248.896c-1.368,0.79-3.585,0.79-4.952,0
								c-1.368-0.79-1.368-2.07,0-2.859c1.368-0.79,3.585-0.79,4.952,0C107.32,246.826,107.32,248.106,105.952,248.896z"/>
						</g>
					</g>
				</g>
			</g>
		</g>
		<g>
			
				<linearGradient id="SVGID_00000000914003404068540270000012475186478494263728_" gradientUnits="userSpaceOnUse" x1="165.8791" y1="328.2484" x2="205.033" y2="373.2461">
				<stop  offset="0" style="stop-color:#FEECBB"/>
				<stop  offset="1" style="stop-color:#FEECBB;stop-opacity:0"/>
			</linearGradient>
			<path style="fill:url(#SVGID_00000000914003404068540270000012475186478494263728_);" d="M228.54,348.195
				c1.008,13.957-15.435,28.747-36.726,33.034s-39.368-3.553-40.376-17.51c-1.008-13.957,15.435-28.747,36.726-33.034
				S227.532,334.237,228.54,348.195z"/>
			<g>
				<path style="fill:#B9EAF0;" d="M215.221,260.458c0,0-11.93,8.779-45.696,6.053l10.661-64.349l27.919-1.077
					C208.104,201.085,203.045,239.727,215.221,260.458z"/>
				<g>
					<path style="fill:#6F7BC4;" d="M215.576,352.052c4.474,2.174,8.578,4.48,7.349,6.659c-5.322,6.804-12.762-0.258-17.243-1.626
						c-3.997-1.211-12.814,2.11-12.304-7.238L215.576,352.052z"/>
					<path style="fill:#E69095;" d="M193.377,349.847c0.053-1.132,0.253-2.479,0.617-4.038c1.229-6.363-6.634-25.514-6.363-32.435
						c0.269-6.901,2.57-15.21,2.57-15.21s-11.948-36.632-10.983-58.249c0.964-21.617,25.5-6.885,25.5-6.885
						s0.563,63.044-2.007,66.587c-0.964,1.231,0.66,44.297,3.505,47.413c1.311,1.447,7.47,4.111,9.36,5.021
						C216.482,360.722,193.377,349.847,193.377,349.847z"/>
					<path style="fill:#5C4556;" d="M192.074,344.763c4.446,4.146,9.886,3.218,13.625,1.29c-0.897-5.153-0.903-41.13,0-42.284
						c0.907-9.961-0.981-70.739-0.981-70.739s-24.535-14.732-25.5,6.885c-0.701,15.716,4.094,42.973,7.196,59.367
						c1.445,7.639,0.544,13.796,0.648,15.678C188.047,332.873,192.101,344.641,192.074,344.763z"/>
					<path style="fill:#3D283C;" d="M193.734,337.204c-0.576-14.163,0.767-28.301,0.91-42.456
						c0.123-12.181-2.751-24.512-1.128-36.631c1.198-8.937,1.129-18.171,7.509-24.197c-0.043-1.445-20.842-15.621-21.807,5.995
						c-0.701,15.716,4.094,42.973,7.196,59.367c1.445,7.64,0.544,13.796,0.648,15.678c0.985,17.913,5.04,29.68,5.013,29.802
						c1.013,0.945,2.08,1.616,3.165,2.082C194.442,343.698,193.868,340.501,193.734,337.204z"/>
				</g>
				<g>
					<path style="fill:#6F7BC4;" d="M185.202,365.182c4.347,2.907,9.746,5.02,8.154,7.114c-8.846,8.763-14.711-1.225-19.181-3.293
						c-3.988-1.836-13.648,0.357-11.775-9.306L185.202,365.182z"/>
					<path style="fill:#E69095;" d="M162.4,359.697c0.218-1.171,0.619-2.546,1.222-4.116c2.194-6.45-3.243-27.525-1.966-34.694
						c1.271-7.149,4.862-15.471,4.862-15.471s-7.18-39.867-3.069-62.242c4.11-22.374,27.546-3.507,27.546-3.507
						s-8.472,65.739-11.657,69.059c-1.181,1.144-5.677,46.228-3.162,49.882c1.157,1.696,7.189,5.355,9.027,6.574
						C184.9,374.342,162.4,359.697,162.4,359.697z"/>
					<path style="fill:#5C4556;" d="M161.773,354.214c4.035,4.957,9.834,4.772,14.005,3.301c-0.194-5.496,4.968-42.965,6.075-44.037
						c2.376-10.243,9.141-73.813,9.141-73.813s-23.436-18.867-27.546,3.507c-2.988,16.267-1.91,45.343-1.036,62.862
						c0.407,8.164-1.415,14.446-1.578,16.422C159.287,341.253,161.819,354.091,161.773,354.214z"/>
					<path style="fill:#3D283C;" d="M165.693,340.17c0.301-11.277-0.023-22.616,1.933-33.776
						c2.026-11.564,4.355-24.469,14.883-29.472c11.105-5.276,4.979-26.958,4.9-39.376c-0.001-0.131,0.016-0.25,0.034-0.368
						c-6.715-4.255-20.885-10.933-23.995,5.995c-2.988,16.267-1.91,45.343-1.036,62.862c0.408,8.164-1.415,14.446-1.578,16.422
						c-1.547,18.797,0.984,31.635,0.938,31.758c0.964,1.184,2.03,2.067,3.148,2.717C164.99,351.341,165.546,345.711,165.693,340.17z
						"/>
				</g>
				<path style="fill:#3E0100;" d="M169.611,138.593c0,0,0.668,12.669-8.646,22.072c-9.314,9.403-5.472,23.91,13.853,19.938
					s17.665-7.967,21.672-11.863c4.007-3.895,5.312-31.309-8.911-34.256C173.355,131.538,169.611,138.593,169.611,138.593z"/>
				<path style="fill:#E69095;" d="M186.705,155.235l5.142,6.794l2.704,12.681l-2.111,7.145l-10.29,1.884l-8.795-3.764
					c0,0-3.831-1.714-1.243-11.236c8.151-4.069,6.279-15.001,6.279-15.001L186.705,155.235z"/>
				<g>
					<g>
						<path style="fill:#E69095;" d="M206.724,202.167c1.987,1.1,3.907,2.369,5.934,3.827c4.252,3.056,8.978,6.937,15.777,11.777
							c0.382,0.21,1.257,0.309,2.337,0.39c0.906-0.368,2.14-0.735,3.285-1.109c0.674-0.22,2.811-0.185,4.117,0.238
							c3.295,1.066,5.311-0.846,6.557,0.073c-0.294,1.927-2.554,2.753-4.958,3.079c2.42,1.138,6.479,2.843,8.617,3.893
							c2.816,1.383,1.73,3.201-2.495,2.642c-3.011-0.398-6.639,1.502-9.043,1.037c-4.006-0.776-6.59-2.926-6.59-2.926
							s-2.81-2.916-6.255-3.744c-5.93-2.651-10.542-3.813-15.237-5.604c-1.981-0.755-3.979-1.622-6.094-2.761
							C202.662,212.68,198.494,201.9,206.724,202.167z"/>
						<path style="fill:#FFFFFF;" d="M227.962,227.196c1.454-1.078,0.721-7.608,1.454-9.172c-0.434-0.063-0.78-0.141-0.981-0.253
							c-6.799-4.841-11.525-8.721-15.777-11.777c-2.027-1.458-3.947-2.727-5.934-3.827c-8.23-0.267-5.129,10.502-5.115,10.8
							C203.723,214.107,226.019,226.743,227.962,227.196z"/>
						<path style="fill:#DDD9EB;" d="M225.887,222.803c-4.845-2.763-9.757-5.405-14.444-8.436c-3.934-2.544-7.76-5.806-9.597-9.791
							c-1.687,3.122-0.247,8.187-0.238,8.39c2.115,1.139,24.41,13.775,26.354,14.228c0.493-0.366,0.732-1.366,0.865-2.58
							C227.861,223.988,226.887,223.374,225.887,222.803z"/>
					</g>
					<path style="fill:#FFFFFF;" d="M192.971,160.665c0,0,9.296,2.582,10.952,9.768c1.615,7.201,1.449,18.324,1.449,18.324
						l-10.15-14.926L192.971,160.665z"/>
				</g>
				<g>
					<path style="fill:#00A1BE;" d="M164.996,211.592c0,0,3.09,5.728,4.803,10.142c4.241,7.077,14.611,17.599,23.851,15.848
						c3.978-0.754,7.725-2.345,11.067-4.552c-0.975-6.99,0.032-28.376,0.032-28.376s5.686-2.535,5.686-9.003
						c0-6.48-14.667-26.576-17.996-34.39h-3.548c0,0,7.785,13.383,2.052,16.924c-5.479,3.429-18.833-9.444-18.833-9.444
						s-3.616,3.423-7.066,6.467c-3.003,2.649-4.497,6.616-3.979,10.587C162.316,195.381,164.996,211.592,164.996,211.592z"/>
					<path style="fill:#0090A8;" d="M193.908,237.528c0.173-0.878,0.4-1.754,0.708-2.629c1.295-3.686,3.614-6.702,3.833-10.751
						c0.209-3.853-1.462-6.979-2.327-10.605c-0.038-0.161-0.058-0.316-0.064-0.466c-0.406-1.33-0.758-3.057-1.013-5.332
						c-0.467-4.174-0.99-8.959-2.686-12.748c-2.431-5.429-4.525-10.933-6.005-16.625c-6.168-1.849-14.243-9.631-14.243-9.631
						s-3.616,3.423-7.066,6.467c-3.003,2.649-4.497,6.616-3.979,10.587c1.25,9.587,3.931,25.798,3.931,25.798
						s3.09,5.728,4.803,10.142c4.241,7.077,14.611,17.599,23.851,15.848C193.737,237.566,193.822,237.545,193.908,237.528z"/>
				</g>
				<g>
					<path style="fill:#FFFFFF;" d="M177.063,163.694c0,0,8.435,12.37,13.139,20.047c4.704,7.677,4.349,36.992,4.349,36.992
						l-4.349,57.292c0,0-27.012,2.602-38.51-9.693c-0.109-24.826,17.269-31.192,16.348-41.869
						c-1.383-16.045-10.861-32.682-7.074-47.447C160.965,179.017,169.318,168.218,177.063,163.694z"/>
					<path style="fill:#DDD9EB;" d="M170.468,185.796c-2.281-2.08-4.769-3.771-7.513-4.991c-1.776,14.059,3.831,31.118,5.084,45.658
						c0.92,10.678-16.457,17.043-16.348,41.869c4.226,4.519,10.547,7.02,16.852,8.383c-6.687-9.465-2.587-13.757,0.194-24.655
						c3.352-13.137,6.695-31.645,5.718-45.53C173.957,199.47,172.121,192.65,170.468,185.796z"/>
					<path style="fill:#B9EAF0;" d="M174.817,205.047c3.038,13.719,15.384,5.45,15.384,5.45S179.473,214.827,174.817,205.047z"/>
				</g>
				<path style="fill:#FFFFFF;" d="M200.512,164.859c0,0-4.579-4.036-10.311-5.004c0,0,12.938,21.185,14.331,31.496
					c1.393,10.31,0.844,81.647,0.844,81.647s6.878-5.434,9.844-12.54c0,0-3.164-17.695-5.881-28.841
					c-2.717-11.146,2.262-24.143,1.096-35.967c-1.166-11.823-6.621-16.421-7.725-21.855
					C201.607,168.362,200.512,164.859,200.512,164.859z"/>
				<path style="fill:#B9EAF0;" d="M193.782,158.454l5.403,5.24l2.424,9.135l-0.997,3.256l3.351,1.222
					c0,0,5.908,19.766,1.414,50.822c0,0,0.572-29.522-4.765-46.373c-4.122-13.016-12.178-24.236-12.178-24.236L193.782,158.454z"/>
				<g>
					<path style="fill:#3E0100;" d="M198.239,131.386c0,0,10.23,9.842,0,17.249V131.386z"/>
					<path style="fill:#FFA0A6;" d="M177.66,131.352c2.429-2.01,10.993-4.304,16.595-0.146c2.55,1.893,6.401,6.417,4.331,18.213
						c-1.65,13.827-7.146,13.827-9.011,14.275c-6.36-0.448-9.177-5.132-11.313-7.47C170.786,148.046,169.588,138.032,177.66,131.352
						z"/>
					<path style="fill:#3E0100;" d="M200.107,134.804c-2.884-8.342-13.126-9.366-18.962-7.374
						c-7.092,2.422-12.443,6.22-11.517,14.472c0.516,4.593,2.039,9.423,4.979,13.053c1.377,1.7,2.748,3.528,3.689,4.821
						c0.118-0.784,0.773-2.639,0.606-3.119c-0.599-1.72-0.595-3.899-0.361-5.445c0.171-1.134,1.613-1.773,2.616-1.485
						c1.197,0.344,1.658,1.472,1.485,2.616c-0.054,0.355-0.024,0.796,0.069,1.27c0.554-1.028,1.011-2.156,1.151-3.333
						c0.422-3.554,8.714-6.39,8.714-6.39S202.991,143.146,200.107,134.804z"/>
					<path style="fill:#FFA0A6;" d="M184.69,150.316c0.671,2.59-0.024,5.011-1.551,5.406c-1.528,0.396-3.31-1.383-3.98-3.974
						c-0.671-2.59,0.024-5.011,1.551-5.406S184.019,147.726,184.69,150.316z"/>
				</g>
				<g>
					<path style="fill:#E69095;" d="M182.055,237.37c0,0,4.861-1.001,5.576-1.144c0.715-0.143,2.573,0,4.718,1.144
						c2.145,1.144,6.433,2.287,7.863,1.859c1.43-0.429,1.859,3.002-1.43,3.002c-3.288,0-5.004-1.287-5.432,0
						c-0.429,1.287,3.145,4.718,5.861,5.004c2.716,0.286,4.432,0.143,4.718,1.144c0.286,1.001-1.287,1.573-3.288,1.859
						s-5.719,1.573-10.579-0.858c-4.861-2.431-7.005-4.883-9.15-5.872C178.767,242.517,182.055,237.37,182.055,237.37z"/>
					<path style="fill:#FFFFFF;" d="M157.77,195.692c0,0-0.998-22.985,10.669-19.182c7.792,2.531,4.896,13.57,4.896,13.57
						s-4.152,22.081-6.505,32.216c0,0,7.802,8.911,15.678,14.981c-0.722,2.507-1.597,8.422-2.324,9.646
						c-6.181-2.801-22.817-14.944-24.761-18.463C153.603,225.018,157.77,195.692,157.77,195.692z"/>
					<path style="fill:#DDD9EB;" d="M167.699,235.029c-2.788-1.94-5.514-4.036-6.762-7.319c-1.617-4.251-0.892-9.143-0.124-13.499
						c1.065-6.042,7.144-29.339-0.544-33.993c-2.917,5.752-2.498,15.475-2.498,15.475s-4.167,29.326-2.346,32.767
						c1.944,3.52,18.58,15.662,24.761,18.463c0.028-0.047,0.056-0.112,0.084-0.172C176.274,242.642,172.457,238.341,167.699,235.029
						z"/>
				</g>
				<path style="fill:#B9EAF0;" d="M178.115,160.665l0.5-2.21l-3.452,1.604l-0.961,4.832l-2.091,2.382l8.075,12.092l6.353,1.911
					l-1.471,4.734c0,0,8.345,20.145,8.899,42.399c0,0,3.405-16.445-1.894-42.871C192.074,185.538,185.499,170.004,178.115,160.665z"
					/>
			</g>
		</g>
		<g>
			<g>
				
					<linearGradient id="SVGID_00000034056356144236715690000007077251689110683786_" gradientUnits="userSpaceOnUse" x1="350.4056" y1="204.6774" x2="371.6573" y2="222.1146">
					<stop  offset="0" style="stop-color:#FEECBB"/>
					<stop  offset="1" style="stop-color:#FEECBB;stop-opacity:0"/>
				</linearGradient>
				<polygon style="fill:url(#SVGID_00000034056356144236715690000007077251689110683786_);" points="337.758,211.059 
					369.586,229.546 387.689,218.51 355.536,201.16 				"/>
				<g>
					<path style="fill:#FFAD10;" d="M357.625,211.077c-5.442,3.141-14.265,3.141-19.706,0c-5.442-3.142-5.442-8.236-0.001-11.378
						c5.442-3.141,14.265-3.141,19.707,0C363.067,202.841,363.067,207.934,357.625,211.077z"/>
					<rect x="333.837" y="173.604" style="fill:#FFAD10;" width="27.87" height="31.784"/>
					<path style="fill:#FFCC85;" d="M357.625,179.293c-5.442,3.141-14.265,3.141-19.706,0c-5.442-3.142-5.442-8.236-0.001-11.378
						c5.442-3.141,14.265-3.141,19.707,0C363.067,171.057,363.067,176.151,357.625,179.293z"/>
					<g>
						<path style="fill:#380200;" d="M354.828,168.722c-3.897,2.25-10.215,2.25-14.112,0c-3.897-2.25-3.897-5.897,0-8.147
							c3.897-2.25,10.215-2.25,14.112,0C358.725,162.825,358.725,166.472,354.828,168.722z"/>
						<rect x="337.793" y="157.877" style="fill:#380200;" width="19.958" height="6.771"/>
						<path style="fill:#736374;" d="M354.828,161.951c-3.897,2.25-10.215,2.25-14.112,0c-3.897-2.25-3.897-5.898,0-8.148
							c3.897-2.25,10.215-2.25,14.112,0C358.725,156.053,358.725,159.701,354.828,161.951z"/>
						<path style="fill:#E69095;" d="M351.548,160.057c-2.086,1.204-5.467,1.204-7.552,0c-2.086-1.204-2.086-3.156,0-4.36
							c2.085-1.204,5.467-1.204,7.552,0C353.633,156.901,353.633,158.853,351.548,160.057z"/>
						<path style="fill:#E69095;" d="M347.772,135.813c1.129,0,2.518,0.583,3.083,2.242c0.413,1.214,0.451,2.04,0.451,2.04
							s0,8.675,0,9.634c0,1.39-0.121,2.505,0.43,4.14c0.37,1.096,1.376,3.127,1.376,4.008h-10.68c0-0.881,1.008-2.912,1.376-4.008
							c0.55-1.635,0.43-2.75,0.43-4.14c0-0.959,0-9.634,0-9.634s0.037-0.826,0.45-2.04
							C345.253,136.396,346.643,135.813,347.772,135.813z"/>
					</g>
					<path style="fill:#380200;" d="M337.92,183.622c-2.721-1.568-4.083-3.629-4.083-5.69v23.862c0,2.057,1.361,4.113,4.083,5.686
						c4.968,2.867,12.763,3.119,18.22,0.744v-12.865v-10.992C350.683,186.744,342.888,186.493,337.92,183.622z"/>
				</g>
			</g>
			<g>
				
					<linearGradient id="SVGID_00000022520349512191524670000012667390211625487492_" gradientUnits="userSpaceOnUse" x1="395.1373" y1="220.2869" x2="430.5566" y2="248.35">
					<stop  offset="0" style="stop-color:#FEECBB"/>
					<stop  offset="1" style="stop-color:#FEECBB;stop-opacity:0"/>
				</linearGradient>
				<polygon style="fill:url(#SVGID_00000022520349512191524670000012667390211625487492_);" points="376.564,230.245 
					420.862,255.976 450.179,239.223 405.429,215.075 				"/>
				<g>
					<path style="fill:#FFAD10;" d="M406.825,230.061c-8.468,4.889-22.196,4.889-30.664,0c-8.468-4.889-8.468-12.816,0-17.704
						c8.468-4.889,22.196-4.888,30.664,0.001C415.292,217.247,415.292,225.173,406.825,230.061z"/>
					<path style="opacity:0.64;fill:#FFCC85;" d="M413.176,171.752l-43.365,0v49.448c-0.004,3.207,2.113,6.414,6.35,8.861
						c8.468,4.889,22.196,4.889,30.664,0c4.234-2.444,6.35-5.648,6.35-8.852l0,0L413.176,171.752z"/>
					<path style="fill:#FFAD10;" d="M406.825,180.605c-8.468,4.889-22.196,4.889-30.664,0c-8.468-4.889-8.468-12.816,0-17.704
						c8.468-4.889,22.196-4.888,30.664,0.001C415.292,167.79,415.292,175.716,406.825,180.605z"/>
					<g>
						<path style="fill:#380200;" d="M402.473,164.157c-6.064,3.501-15.896,3.501-21.96,0c-6.063-3.501-6.063-9.177,0-12.678
							c6.064-3.501,15.896-3.501,21.96,0C408.537,154.98,408.537,160.656,402.473,164.157z"/>
						<rect x="375.965" y="147.281" style="fill:#380200;" width="31.055" height="10.536"/>
						<path style="fill:#736374;" d="M402.473,153.62c-6.064,3.501-15.896,3.501-21.96,0c-6.063-3.501-6.063-9.177,0-12.678
							c6.064-3.501,15.896-3.501,21.96,0C408.537,144.443,408.537,150.119,402.473,153.62z"/>
						<path style="opacity:0.36;fill:#FFCC85;" d="M398.696,151.44c-4.138,2.573-10.718,2.798-14.696,0.501
							c-3.978-2.297-3.849-6.245,0.289-8.818c4.138-2.574,10.718-2.798,14.696-0.501
							C402.964,144.918,402.835,148.867,398.696,151.44z"/>
					</g>
					<path style="fill:#EBEAF0;" d="M406.823,187.341c4.235-2.44,6.353-5.647,6.353-8.854v37.131c0,3.2-2.117,6.401-6.353,8.847
						c-7.73,4.462-19.86,4.852-28.351,1.158v-20.018v-17.105C386.962,192.2,399.093,191.809,406.823,187.341z"/>
				</g>
			</g>
		</g>
		<g>
			
				<linearGradient id="SVGID_00000146482513544737141360000016533760229513416360_" gradientUnits="userSpaceOnUse" x1="310.8158" y1="389.0495" x2="323.7913" y2="412.1797">
				<stop  offset="0" style="stop-color:#FEECBB"/>
				<stop  offset="1" style="stop-color:#FEECBB;stop-opacity:0"/>
			</linearGradient>
			<polygon style="fill:url(#SVGID_00000146482513544737141360000016533760229513416360_);" points="236.505,431.531 
				265.885,449.249 399.464,372.126 368.556,354.941 			"/>
			<g>
				<polygon style="fill:#FF5746;" points="236.505,341.419 236.505,431.531 368.556,354.941 368.556,266.194 				"/>
				<g>
					<polygon style="fill:#EBEAF0;" points="302.531,327.641 302.531,368.195 314.14,361.269 314.14,320.844 					"/>
					<polygon style="fill:#EBEAF0;" points="325.935,327.783 290.696,347.805 290.696,361.306 325.935,341.154 					"/>
				</g>
				<polygon style="fill:#E3230F;" points="236.505,341.419 182.216,309.629 182.216,400.01 236.505,431.531 				"/>
				<polygon style="fill:#EBEAF0;" points="182.216,309.629 315.885,233.081 368.556,266.194 236.505,341.419 				"/>
			</g>
			<g>
				<path style="fill:#FFAD10;" d="M213.805,321.613c-1.861,1.074-4.878,1.074-6.739,0c-1.861-1.075-1.861-2.816,0-3.891
					c1.861-1.074,4.878-1.074,6.74,0C215.666,318.796,215.666,320.538,213.805,321.613z"/>
				<rect x="205.67" y="308.797" style="fill:#FFAD10;" width="9.531" height="10.87"/>
				<path style="fill:#FFCC85;" d="M213.805,310.743c-1.861,1.074-4.878,1.074-6.739,0c-1.861-1.075-1.861-2.816,0-3.891
					c1.861-1.074,4.878-1.074,6.74,0C215.666,307.927,215.666,309.668,213.805,310.743z"/>
				<g>
					<path style="fill:#380200;" d="M212.849,307.128c-1.333,0.77-3.493,0.77-4.826,0c-1.333-0.769-1.333-2.017,0-2.786
						c1.333-0.769,3.493-0.769,4.826,0C214.182,305.111,214.182,306.359,212.849,307.128z"/>
					<rect x="207.023" y="303.419" style="fill:#380200;" width="6.825" height="2.316"/>
					<path style="fill:#736374;" d="M212.849,304.812c-1.333,0.769-3.493,0.769-4.826,0c-1.333-0.769-1.333-2.017,0-2.786
						c1.333-0.769,3.493-0.769,4.826,0C214.182,302.795,214.182,304.043,212.849,304.812z"/>
					<path style="fill:#E69095;" d="M211.727,304.165c-0.713,0.412-1.87,0.412-2.583,0c-0.713-0.412-0.713-1.079,0-1.491
						c0.713-0.412,1.87-0.412,2.583,0C212.44,303.085,212.44,303.753,211.727,304.165z"/>
					<path style="fill:#E69095;" d="M210.436,295.874c0.386,0,0.861,0.199,1.054,0.767c0.141,0.415,0.154,0.698,0.154,0.698
						s0,2.967,0,3.295c0,0.475-0.041,0.857,0.147,1.416c0.126,0.375,0.471,1.069,0.471,1.371h-3.652
						c0-0.301,0.345-0.996,0.471-1.371c0.188-0.559,0.147-0.941,0.147-1.416c0-0.328,0-3.295,0-3.295s0.013-0.283,0.154-0.698
						C209.574,296.073,210.05,295.874,210.436,295.874z"/>
				</g>
				<path style="fill:#380200;" d="M207.066,312.224c-0.931-0.536-1.396-1.241-1.396-1.946v8.16c0,0.703,0.465,1.407,1.396,1.944
					c1.699,0.981,4.365,1.067,6.231,0.255v-4.4v-3.759C211.431,313.291,208.765,313.206,207.066,312.224z"/>
			</g>
			<g>
				<path style="fill:#FFCC85;" d="M234.549,328.669c-2.609,1.506-6.838,1.506-9.447,0c-2.609-1.506-2.609-3.948,0-5.454
					c2.609-1.506,6.838-1.506,9.447,0C237.157,324.721,237.157,327.163,234.549,328.669z"/>
				<rect x="223.146" y="310.706" style="fill:#FFCC85;" width="13.359" height="15.236"/>
				<path style="fill:#FFAD10;" d="M234.549,313.433c-2.609,1.506-6.838,1.506-9.447,0c-2.609-1.506-2.609-3.948,0-5.454
					c2.609-1.506,6.838-1.506,9.447,0C237.157,309.485,237.157,311.927,234.549,313.433z"/>
				<g>
					<path style="fill:#380200;" d="M233.208,308.366c-1.868,1.078-4.897,1.078-6.765,0c-1.868-1.079-1.868-2.827,0-3.906
						c1.868-1.079,4.897-1.079,6.765,0C235.076,305.539,235.076,307.287,233.208,308.366z"/>
					<rect x="225.042" y="303.167" style="fill:#380200;" width="9.567" height="3.246"/>
					<path style="fill:#736374;" d="M233.208,305.12c-1.868,1.079-4.897,1.079-6.765,0c-1.868-1.079-1.868-2.827,0-3.906
						c1.868-1.079,4.897-1.079,6.765,0C235.076,302.293,235.076,304.041,233.208,305.12z"/>
				</g>
				<path style="fill:#380200;" d="M225.103,315.508c-1.305-0.751-1.957-1.74-1.957-2.728v11.439c0,0.986,0.652,1.972,1.957,2.726
					c2.381,1.375,6.118,1.495,8.734,0.357v-6.167v-5.27C231.221,317.005,227.484,316.885,225.103,315.508z"/>
			</g>
			<g>
				<polygon style="fill:#BBB8CE;" points="270.293,298.695 282.697,306.937 297.572,299.203 297.572,298.352 285.756,289.662 				
					"/>
				<polygon style="fill:#A5A4C0;" points="270.293,297.844 282.697,306.087 297.572,298.352 285.756,288.811 				"/>
				<g>
					<polygon style="fill:#BBB8CE;" points="310.338,232.29 250.979,266.867 250.979,314.235 310.338,279.458 					"/>
					<polygon style="fill:#FCFDF7;" points="310.338,232.29 307.265,230.905 248.98,264.868 248.98,312.636 250.979,314.235 
						250.979,266.867 					"/>
				</g>
				<path style="fill:#A5A4C0;" d="M292.382,275.803l4.315,21.999l-14.874,7.735l-5.203-23.745
					c-0.353-1.613,0.416-3.262,1.879-4.028l8.59-4.499C289.259,272.128,291.911,273.4,292.382,275.803z"/>
				<path style="fill:#EBEAF0;" d="M293.257,276.353l4.315,21.999l-14.875,7.735l-5.203-23.745
					c-0.353-1.613,0.416-3.262,1.879-4.028l8.59-4.499C290.133,272.677,292.785,273.95,293.257,276.353z"/>
			</g>
			<g>
				<polygon style="fill:#FF5746;" points="346.765,237.137 328.663,246.948 322.444,243.493 340.113,233.588 				"/>
				<polygon style="fill:#EC9227;" points="328.663,246.948 328.663,275.07 322.444,271.441 322.444,243.493 				"/>
				<polygon style="fill:#BBB8CE;" points="322.444,248.338 322.444,258.816 328.663,262.271 328.663,251.793 				"/>
				<polygon style="fill:#EC9227;" points="346.765,237.137 328.663,246.948 328.663,275.07 346.765,264.788 				"/>
				<polygon style="fill:#EBEAF0;" points="328.663,251.796 328.663,262.259 346.765,252.448 346.765,241.985 				"/>
			</g>
		</g>
		<g>
			
				<linearGradient id="SVGID_00000069390494008073096240000002681345874214439330_" gradientUnits="userSpaceOnUse" x1="357.6776" y1="418.1073" x2="392.9593" y2="452.576">
				<stop  offset="0" style="stop-color:#FEECBB"/>
				<stop  offset="1" style="stop-color:#FEECBB;stop-opacity:0"/>
			</linearGradient>
			<path style="fill:url(#SVGID_00000069390494008073096240000002681345874214439330_);" d="M413.14,426.867
				c1.008,13.957-15.435,28.747-36.726,33.034c-21.291,4.287-39.368-3.553-40.376-17.51s15.435-28.747,36.726-33.034
				S412.132,412.91,413.14,426.867z"/>
			<g>
				<g>
					<path style="fill:#773829;" d="M378.338,420.264c3.075-0.869,6.907,1.277,6.907,1.277s8.232,3.454,8.555,4.28
						c-0.503,6.77,0.895,11.632,0.02,13.288c-0.874,1.658-4.572,2.95-6.218,0.831c-1.902-2.444-2.942-6.1-4.435-7.703
						c-1.488-1.62-6.463-8.286-6.463-8.286S375.268,421.137,378.338,420.264z"/>
					<path style="fill:#EBEAF0;" d="M399.464,324.087c0.667,8.029,1.506,19.402,0.343,33.378
						c-2.359,28.362-5.821,58.074-6.006,68.357c-0.085,4.73-10.943,2.319-11.206-1.673c-1.062-16.118-1.838-17.583-3.577-37.797
						c-0.884-9.625-0.324-19.168-2.648-46.454C376.494,335.939,397.922,322.749,399.464,324.087z"/>
					<path style="fill:#DDD9EB;" d="M399.464,324.087c-0.862-0.748-7.94,3.046-14.036,7.228c0.271,0.433,0.55,0.859,0.795,1.314
						c2.819,5.22,2.788,10.656,2.874,16.434c0.12,8.026,0.546,16.042,0.991,24.056c0.406,7.303,1.155,14.581,1.511,21.889
						c0.419,8.618,0.678,17.439-0.72,25.986c-0.373,2.279-0.967,5.029-2.104,7.343c2.576,0.35,4.986-0.297,5.026-2.516
						c0.185-10.283,3.647-39.994,6.006-68.357C400.97,343.489,400.131,332.116,399.464,324.087z"/>
				</g>
				<g>
					<path style="fill:#773829;" d="M364.659,432.143c2.05-0.457,5.207,0.172,7.398,0.745c1.504,0.394,2.535,1.766,2.532,3.32
						c-0.006,2.904-0.236,7.309-1.539,8.04c-1.963,1.112-18.415-1.374-23.359-2.818c-4.942-1.452-4.247-5.935-2.506-7.359
						C348.932,432.641,356.986,433.932,364.659,432.143z"/>
					<path style="fill:#EBEAF0;" d="M356.528,321.318c9.031,0.34,21.46-3.892,21.46-3.892l14.188-6.462
						c0,0,7.289,11.711,7.289,18.996c0,10.943-19.103,16.576-19.103,16.576s-5.832,71.585-6.697,86.676
						c-0.128,2.235-1.839,3.86-4.077,3.896c-4.323,0.07-6.51-3.037-6.51-3.037s-4.091-26.706-5.617-53.703
						C356.377,361.238,355.436,327.864,356.528,321.318z"/>
					<path style="fill:#DDD9EB;" d="M392.175,310.964l-14.188,6.462c0,0-1.323,0.45-3.412,1.043c0.334,1.081,0.62,2.172,0.818,3.271
						c1.173,6.512-2.232,11.105-4.007,17.057c-2.303,7.718-1.854,16.994-2.044,24.998c-0.201,8.491-0.105,16.986-0.086,25.479
						c0.029,13.22,0.62,26.441-0.782,39.619c-0.253,2.375-0.492,5.477-1.759,7.758c0.82,0.288,1.776,0.475,2.871,0.457
						c2.238-0.036,3.949-1.661,4.077-3.896c0.865-15.091,6.697-86.676,6.697-86.676s19.103-5.634,19.103-16.576
						C399.464,322.675,392.175,310.964,392.175,310.964z"/>
				</g>
				<g>
					<g>
						<path style="fill:#E69095;" d="M393.799,267.336c-0.513-6.221,0.671-13.752,7.059-13.039c4.749,0.531,8.127,7.323,6.88,13.376
							c-1.254,6.042-2.559,31.898-3.226,35.502c-0.675,3.623-16.664,24.252-16.362,20.912
							C388.477,320.747,394.313,273.538,393.799,267.336z"/>
					</g>
					<g>
						<path style="fill:#00A1BE;" d="M392.008,287.917c2.543,1.442,7.967-0.072,9.856-1.117c1.829-1.013,5.076-2.465,6.134-4.239
							c0.49-6.354,1.605-12.588,1.623-15.449c0.058-9.153-4.014-12.286-8.764-12.817c-6.387-0.712-7.571,6.818-7.059,13.039
							C394.012,269.908,393.133,278.501,392.008,287.917z"/>
					</g>
					<g>
						<path style="fill:#FFA0A6;" d="M370.635,268.249c0,0-1.961,0.296-5.853-1.698c-1.392-0.713-2.351-1.264-3.009-1.677
							c-0.73-0.458-0.492-1.579,0.361-1.705c0.712-0.105,1.581-0.045,2.489,0.452c0.022,0.012,0.045,0.024,0.067,0.036
							c1.09,0.578,2.285-0.657,1.687-1.736c-0.546-0.984-0.857-2.373,0.399-3.733c2.312-2.502,5.207-5.386,7.435-1.134
							c2.228,4.252,1.513,9.066,1.513,9.066l2.211,3.814l-4.157,2.4L370.635,268.249z"/>
						
							<path style="fill:none;stroke:#FFA0A6;stroke-width:2.089;stroke-linecap:round;stroke-linejoin:round;stroke-miterlimit:10;" d="
							M361.281,253.936c0,0,3.47,3.091,5.695,6.79"/>
						
							<path style="fill:none;stroke:#FFA0A6;stroke-width:2.089;stroke-linecap:round;stroke-linejoin:round;stroke-miterlimit:10;" d="
							M364.508,256.956c0,0,2.97-1.442,3.138,3.027"/>
						
							<path style="fill:none;stroke:#FFA0A6;stroke-width:2.089;stroke-linecap:round;stroke-linejoin:round;stroke-miterlimit:10;" d="
							M366.962,256.309c0,0,2.516-2.332,2.684,2.137"/>
						
							<path style="fill:none;stroke:#FFA0A6;stroke-width:2.089;stroke-linecap:round;stroke-linejoin:round;stroke-miterlimit:10;" d="
							M369.133,254.855c0,0,2.755-2.263,2.922,2.206"/>
					</g>
				</g>
				<g>
					<g>
						<path style="fill:#00A1BE;" d="M363.907,273.962c3.171-6.43,9.769-8.932,16.45-11.531l0,0l13.915-6.832
							c3.961-1.676,9.44,1.09,10.493,5.26c0.444,1.756,0.723,3.878,0.67,6.41c-0.081,3.519-1.449,8.069-2.388,13.867
							c-2.291,14.149-3.055,29.827-2.331,38.621c0.337,4.094-0.869,5.938-3.195,7.18c-18.936,10.106-32.785,12.841-41.451-1.609
							c0-6.369,4.389-16.448,4.19-21.67C359.59,286.058,360.992,279.874,363.907,273.962z"/>
					</g>
					<g>
						<path style="fill:#0090A8;" d="M405.435,267.27c0.053-2.532-0.226-4.654-0.67-6.41c-1.054-4.17-6.532-6.936-10.493-5.26
							l-0.927,0.455c9.813,8.228,5.521,15.118,4.727,22.64c-0.836,7.916-6.756,16.555-9.435,24.024
							c-1.86,5.186-3.303,16.103-7.249,20.128c-4.041,4.122-8.422,7.414-11.431,12.343c7.5,0.915,16.692-2.449,27.565-8.251
							c2.327-1.242,3.533-3.086,3.195-7.18c-0.724-8.794,0.04-24.473,2.331-38.621C403.986,275.339,405.355,270.789,405.435,267.27z
							"/>
					</g>
				</g>
				<g>
					<path style="fill:#FFA0A6;" d="M384.167,254.592c0,0-6.653,0.584-8.978,1.184c-2.325,0.6-4.008-1.846-6.933-9.105
						c-1.089-2.701-1.642-6.151-1.961-9.615c-0.966-10.454,3.006-13.467,12.874-10.34
						C390.088,230.177,384.167,254.592,384.167,254.592z"/>
					<path style="fill:#E69095;" d="M373.011,255.179c0.717,0.593,1.427,0.791,2.178,0.597c2.325-0.6,8.978-1.184,8.978-1.184
						s0.376-1.554,0.764-3.931C380.733,250.086,376.115,251.506,373.011,255.179z"/>
					<path style="fill:#FFA0A6;" d="M392.743,260.981c0,0-2.431-9.01-2.953-13.689l-9.433,1.585c0,0-1.34,12.824-1.34,17.264
						C379.017,270.581,395.705,269.797,392.743,260.981z"/>
					<g>
						<path style="fill:#3E0100;" d="M392.467,247.801c1.884-3.04,2.847-8.604,3.299-11.931
							c1.689-12.432-5.141-17.592-16.748-17.487c-9.034-0.863-12.311,3.709-13.533,9.712c-1.462,7.182,2.592,5.297,7.527,10.493
							c2.785,2.934-0.966,11.949,7.349,13.955C384.931,252.447,389.6,252.427,392.467,247.801z"/>
					</g>
					<path style="fill:#3E0100;" d="M366.154,218.278c0,0,2.536-0.393,4.867,0c2.331,0.393,9.581,2.483,9.581,2.483l-9.581,3.484
						C371.02,224.245,363.84,224.296,366.154,218.278z"/>
					<path style="fill:#3E0100;" d="M364.736,221.638c0,0,2.37,1.539,4.7,1.931c2.331,0.393,9.581,2.483,9.581,2.483l-9.581,3.484
						C369.437,229.536,362.423,227.656,364.736,221.638z"/>
					<path style="fill:#3E0100;" d="M368.709,232.633c0,0-0.859,5.558-0.76,8.664c0.06,1.864,1.368,1.976,2.734,2.737l3.415-7.654
						L368.709,232.633z"/>
					<ellipse style="fill:#FFA0A6;" cx="373.011" cy="241.836" rx="2.734" ry="4.205"/>
				</g>
				<g>
					<g>
						<path style="fill:#FFA0A6;" d="M370.038,270.727c-6.311-1.212-7.632,6.236-8.037,12.445c-0.4,6.127-2.149,19.307-3.667,31.777
							c-1.263,2.425-11.695,24.776-13.743,26.825c-0.328-0.038-2.567,0.605-4.365,0.998c-1.804,0.385-4.72,4.836-5.202,5.936
							c-0.183,0.418-0.031,1.258,1.599,0.799c1.361-0.382,2.813-2.651,3.089-2.031c0.486,1.09-0.892,3.918-0.892,3.918
							s-3.003,4.442-2.606,5.717c0.386,1.281,2.285,1.628,5.375,0.965c1.266-0.276,2.674-2.758,3.828-4.869
							c1.664-3.047,3.555-7.685,3.555-7.685s15.744-22.211,17.715-25.513c1.725-2.888,7.462-29.49,9.175-35.429
							C377.587,278.641,374.729,271.615,370.038,270.727z"/>
					</g>
					<g>
						<path style="fill:#E69095;" d="M370.038,270.727c-6.311-1.212-7.632,6.236-8.037,12.445
							c-0.227,3.474-0.887,7.289-1.693,12.213c2.457,3.718,3.916,13.89,3.649,18.359c-0.456,7.632-6.251,14.311-9.254,21.115
							c-0.866,1.962-1.659,3.953-2.409,5.96c4.732-6.708,12.998-18.477,14.392-20.811c1.725-2.888,7.462-29.49,9.175-35.429
							C377.587,278.641,374.729,271.615,370.038,270.727z"/>
					</g>
					<g>
						<path style="fill:#00A1BE;" d="M374.099,301.85c1.231-4.128,3.175-13.84,3.075-19.265c-0.114-6.183-0.585-12.202-5.085-13.798
							c-12.928-4.585-15.712,15.71-15.077,29.461C357.818,301.027,366.943,303.333,374.099,301.85z"/>
					</g>
				</g>
			</g>
		</g>
		<g>
			<g>
				
					<linearGradient id="SVGID_00000125593799558568548740000014862656196691934893_" gradientUnits="userSpaceOnUse" x1="109.6643" y1="419.0085" x2="116.7066" y2="425.6988">
					<stop  offset="0" style="stop-color:#FEECBB"/>
					<stop  offset="1" style="stop-color:#FEECBB;stop-opacity:0"/>
				</linearGradient>
				<path style="fill:url(#SVGID_00000125593799558568548740000014862656196691934893_);" d="M118.985,414.82l-20.24-12.592
					c-3.374-2.1-7.814-1.068-9.914,2.31c-2.1,3.375-1.066,7.815,2.309,9.915l20.24,12.592c1.183,0.737,2.497,1.087,3.796,1.087
					c2.404,0,4.754-1.205,6.118-3.397C123.394,421.36,122.36,416.921,118.985,414.82z"/>
				
					<linearGradient id="SVGID_00000051360014140147750460000011811810483392480696_" gradientUnits="userSpaceOnUse" x1="146.5976" y1="422.3795" x2="155.0561" y2="428.4775">
					<stop  offset="0" style="stop-color:#FEECBB"/>
					<stop  offset="1" style="stop-color:#FEECBB;stop-opacity:0"/>
				</linearGradient>
				<path style="fill:url(#SVGID_00000051360014140147750460000011811810483392480696_);" d="M156.509,419.671l-10.351-6.44l0,0
					l-9.889-6.152c-3.374-2.1-7.814-1.068-9.915,2.31c-2.1,3.375-1.066,7.815,2.309,9.915l8.9,5.537v0l11.34,7.055
					c1.183,0.737,2.497,1.087,3.796,1.087c2.404,0,4.754-1.205,6.118-3.397C160.918,426.211,159.884,421.772,156.509,419.671z"/>
			</g>
			<g>
				<g>
					<path style="fill:#FF5746;" d="M109.657,423.281c2.404,0,4.755-1.205,6.118-3.397c2.1-3.375,1.066-7.815-2.309-9.915
						l-20.24-12.592c-3.374-2.1-7.814-1.067-9.914,2.31c-2.1,3.375-1.066,7.815,2.309,9.915l20.24,12.592
						C107.044,422.931,108.358,423.281,109.657,423.281z"/>
					<path style="fill:#EBEAF0;" d="M83.312,399.687c2.1-3.377,6.54-4.41,9.914-2.31l9.889,6.153
						c-2.732,0.776-5.198,2.519-6.817,5.121c-1.257,2.021-1.824,4.273-1.778,6.488l-8.9-5.537
						C82.246,407.501,81.212,403.062,83.312,399.687z"/>
				</g>
				<g>
					<path style="fill:#FF5746;" d="M147.181,428.132c2.404,0,4.754-1.205,6.118-3.397c2.1-3.375,1.066-7.815-2.309-9.915
						l-20.24-12.592c-3.374-2.1-7.814-1.068-9.914,2.31c-2.1,3.375-1.066,7.815,2.309,9.915l20.24,12.592
						C144.568,427.781,145.882,428.132,147.181,428.132z"/>
					<path style="fill:#EBEAF0;" d="M120.836,404.538c2.1-3.377,6.54-4.41,9.914-2.31l9.889,6.153
						c-2.732,0.776-5.198,2.519-6.817,5.121c-1.258,2.021-1.824,4.273-1.778,6.488l-8.9-5.537
						C119.77,412.352,118.736,407.913,120.836,404.538z"/>
				</g>
			</g>
		</g>
	</g>
</g>
</svg>
